  0
SECTION
  2
HEADER
  9
$ACADVER
  1
AC1014
  9
$HANDSEED
  5
FFFF
  9
$MEASUREMENT
 70
     1
  0
ENDSEC
  0
SECTION
  2
TABLES
  0
TABLE
  2
VPORT
  5
8
330
0
100
AcDbSymbolTable
 70
     4
  0
VPORT
  5
2E
330
8
100
AcDbSymbolTableRecord
100
AcDbViewportTableRecord
  2
*ACTIVE
 70
     0
 10
0.0
 20
0.0
 11
1.0
 21
1.0
 12
210.0
 22
148.5
 13
0.0
 23
0.0
 14
10.0
 24
10.0
 15
10.0
 25
10.0
 16
0.0
 26
0.0
 36
1.0
 17
0.0
 27
0.0
 37
0.0
 40
341.0
 41
1.24
 42
50.0
 43
0.0
 44
0.0
 50
0.0
 51
0.0
 71
     0
 72
   100
 73
     1
 74
     3
 75
     0
 76
     0
 77
     0
 78
     0
  0
ENDTAB
  0
TABLE
  2
LTYPE
  5
5
330
0
100
AcDbSymbolTable
 70
     1
  0
LTYPE
  5
14
330
5
100
AcDbSymbolTableRecord
100
AcDbLinetypeTableRecord
  2
BYBLOCK
 70
     0
  3

 72
    65
 73
     0
 40
0.0
  0
LTYPE
  5
15
330
5
100
AcDbSymbolTableRecord
100
AcDbLinetypeTableRecord
  2
BYLAYER
 70
     0
  3

 72
    65
 73
     0
 40
0.0
  0
LTYPE
  5
16
330
5
100
AcDbSymbolTableRecord
100
AcDbLinetypeTableRecord
  2
CONTINUOUS
 70
     0
  3
Solid line
 72
    65
 73
     0
 40
0.0
  0
ENDTAB
  0
TABLE
  2
LAYER
  5
2
100
AcDbSymbolTable
 70
1
  0
LAYER
  5
50
100
AcDbSymbolTableRecord
100
AcDbLayerTableRecord
  2
0
 70
0
  6
CONTINUOUS
  0
ENDTAB
  0
TABLE
  2
STYLE
  5
3
330
0
100
AcDbSymbolTable
 70
     1
  0
STYLE
  5
11
330
3
100
AcDbSymbolTableRecord
100
AcDbTextStyleTableRecord
  2
STANDARD
 70
     0
 40
0.0
 41
1.0
 50
0.0
 71
     0
 42
2.5
  3
txt
  4

  0
ENDTAB
  0
TABLE
  2
VIEW
  5
6
330
0
100
AcDbSymbolTable
 70
     0
  0
ENDTAB
  0
TABLE
  2
UCS
  5
7
330
0
100
AcDbSymbolTable
 70
     0
  0
ENDTAB
  0
TABLE
  2
APPID
  5
9
330
0
100
AcDbSymbolTable
 70
     2
  0
APPID
  5
12
330
9
100
AcDbSymbolTableRecord
100
AcDbRegAppTableRecord
  2
ACAD
 70
     0
  0
ENDTAB
  0
TABLE
  2
DIMSTYLE
  5
A
330
0
100
AcDbSymbolTable
 70
     1
  0
DIMSTYLE
105
27
330
A
100
AcDbSymbolTableRecord
100
AcDbDimStyleTableRecord
  2
ISO-25
 70
     0
  3

  4

  5

  6

  7

 40
1.0
 41
2.5
 42
0.625
 43
3.75
 44
1.25
 45
0.0
 46
0.0
 47
0.0
 48
0.0
140
2.5
141
2.5
142
0.0
143
0.03937007874016
144
1.0
145
0.0
146
1.0
147
0.625
 71
     0
 72
     0
 73
     0
 74
     0
 75
     0
 76
     0
 77
     1
 78
     8
170
     0
171
     3
172
     1
173
     0
174
     0
175
     0
176
     0
177
     0
178
     0
270
     2
271
     2
272
     2
273
     2
274
     3
340
11
275
     0
280
     0
281
     0
282
     0
283
     0
284
     8
285
     0
286
     0
287
     3
288
     0
  0
ENDTAB
  0
TABLE
  2
BLOCK_RECORD
  5
1
330
0
100
AcDbSymbolTable
 70
     1
  0
BLOCK_RECORD
  5
1F
330
1
100
AcDbSymbolTableRecord
100
AcDbBlockTableRecord
  2
*MODEL_SPACE
  0
BLOCK_RECORD
  5
1B
330
1
100
AcDbSymbolTableRecord
100
AcDbBlockTableRecord
  2
*PAPER_SPACE
  0
ENDTAB
  0
ENDSEC
  0
SECTION
  2
BLOCKS
  0
BLOCK
  5
20
330
1F
100
AcDbEntity
  8
0
100
AcDbBlockBegin
  2
*MODEL_SPACE
 70
     0
 10
0.0
 20
0.0
 30
0.0
  3
*MODEL_SPACE
  1

  0
ENDBLK
  5
21
330
1F
100
AcDbEntity
  8
0
100
AcDbBlockEnd
  0
BLOCK
  5
1C
330
1B
100
AcDbEntity
 67
     1
  8
0
100
AcDbBlockBegin
  2
*PAPER_SPACE
  1

  0
ENDBLK
  5
1D
330
1B
100
AcDbEntity
 67
     1
  8
0
100
AcDbBlockEnd
  0
ENDSEC
  0
SECTION
  2
ENTITIES
  0
LWPOLYLINE
  5
100
100
AcDbEntity
  8
0
 62
7
100
AcDbPolyline
 90
5
 70
1
 10
142.904000
 20
56.429000
 30
0.0
 10
130.259000
 20
56.429000
 30
0.0
 10
130.259000
 20
62.672000
 30
0.0
 10
142.904000
 20
62.672000
 30
0.0
 10
142.904000
 20
56.429000
 30
0.0
  0
LWPOLYLINE
  5
101
100
AcDbEntity
  8
0
 62
7
100
AcDbPolyline
 90
5
 70
1
 10
142.904000
 20
64.570000
 30
0.0
 10
130.259000
 20
64.570000
 30
0.0
 10
130.259000
 20
70.813000
 30
0.0
 10
142.904000
 20
70.813000
 30
0.0
 10
142.904000
 20
64.570000
 30
0.0
  0
LWPOLYLINE
  5
102
100
AcDbEntity
  8
0
 62
7
100
AcDbPolyline
 90
5
 70
1
 10
142.904000
 20
72.710000
 30
0.0
 10
130.259000
 20
72.710000
 30
0.0
 10
130.259000
 20
78.953000
 30
0.0
 10
142.904000
 20
78.953000
 30
0.0
 10
142.904000
 20
72.710000
 30
0.0
  0
LWPOLYLINE
  5
103
100
AcDbEntity
  8
0
 62
7
100
AcDbPolyline
 90
5
 70
1
 10
142.904000
 20
80.851000
 30
0.0
 10
130.259000
 20
80.851000
 30
0.0
 10
130.259000
 20
87.094000
 30
0.0
 10
142.904000
 20
87.094000
 30
0.0
 10
142.904000
 20
80.851000
 30
0.0
  0
LWPOLYLINE
  5
104
100
AcDbEntity
  8
0
 62
7
100
AcDbPolyline
 90
5
 70
1
 10
142.904000
 20
88.991000
 30
0.0
 10
130.259000
 20
88.991000
 30
0.0
 10
130.259000
 20
95.234000
 30
0.0
 10
142.904000
 20
95.234000
 30
0.0
 10
142.904000
 20
88.991000
 30
0.0
  0
LWPOLYLINE
  5
105
100
AcDbEntity
  8
0
 62
7
100
AcDbPolyline
 90
5
 70
1
 10
142.904000
 20
97.132000
 30
0.0
 10
130.259000
 20
97.132000
 30
0.0
 10
130.259000
 20
103.375000
 30
0.0
 10
142.904000
 20
103.375000
 30
0.0
 10
142.904000
 20
97.132000
 30
0.0
  0
LWPOLYLINE
  5
106
100
AcDbEntity
  8
0
 62
7
100
AcDbPolyline
 90
5
 70
1
 10
142.904000
 20
105.272000
 30
0.0
 10
130.259000
 20
105.272000
 30
0.0
 10
130.259000
 20
111.515000
 30
0.0
 10
142.904000
 20
111.515000
 30
0.0
 10
142.904000
 20
105.272000
 30
0.0
  0
LWPOLYLINE
  5
107
100
AcDbEntity
  8
0
 62
7
100
AcDbPolyline
 90
5
 70
1
 10
142.904000
 20
113.412000
 30
0.0
 10
130.259000
 20
113.412000
 30
0.0
 10
130.259000
 20
119.655000
 30
0.0
 10
142.904000
 20
119.655000
 30
0.0
 10
142.904000
 20
113.412000
 30
0.0
  0
LWPOLYLINE
  5
108
100
AcDbEntity
  8
0
 62
7
100
AcDbPolyline
 90
5
 70
1
 10
54.385000
 20
56.429000
 30
0.0
 10
41.740000
 20
56.429000
 30
0.0
 10
41.740000
 20
62.672000
 30
0.0
 10
54.385000
 20
62.672000
 30
0.0
 10
54.385000
 20
56.429000
 30
0.0
  0
LWPOLYLINE
  5
109
100
AcDbEntity
  8
0
 62
7
100
AcDbPolyline
 90
5
 70
1
 10
54.385000
 20
64.570000
 30
0.0
 10
41.740000
 20
64.570000
 30
0.0
 10
41.740000
 20
70.813000
 30
0.0
 10
54.385000
 20
70.813000
 30
0.0
 10
54.385000
 20
64.570000
 30
0.0
  0
LWPOLYLINE
  5
10a
100
AcDbEntity
  8
0
 62
7
100
AcDbPolyline
 90
5
 70
1
 10
54.385000
 20
72.710000
 30
0.0
 10
41.740000
 20
72.710000
 30
0.0
 10
41.740000
 20
78.953000
 30
0.0
 10
54.385000
 20
78.953000
 30
0.0
 10
54.385000
 20
72.710000
 30
0.0
  0
LWPOLYLINE
  5
10b
100
AcDbEntity
  8
0
 62
7
100
AcDbPolyline
 90
5
 70
1
 10
54.385000
 20
80.851000
 30
0.0
 10
41.740000
 20
80.851000
 30
0.0
 10
41.740000
 20
87.094000
 30
0.0
 10
54.385000
 20
87.094000
 30
0.0
 10
54.385000
 20
80.851000
 30
0.0
  0
LWPOLYLINE
  5
10c
100
AcDbEntity
  8
0
 62
7
100
AcDbPolyline
 90
5
 70
1
 10
54.385000
 20
88.991000
 30
0.0
 10
41.740000
 20
88.991000
 30
0.0
 10
41.740000
 20
95.234000
 30
0.0
 10
54.385000
 20
95.234000
 30
0.0
 10
54.385000
 20
88.991000
 30
0.0
  0
LWPOLYLINE
  5
10d
100
AcDbEntity
  8
0
 62
7
100
AcDbPolyline
 90
5
 70
1
 10
54.385000
 20
97.132000
 30
0.0
 10
41.740000
 20
97.132000
 30
0.0
 10
41.740000
 20
103.375000
 30
0.0
 10
54.385000
 20
103.375000
 30
0.0
 10
54.385000
 20
97.132000
 30
0.0
  0
LWPOLYLINE
  5
10e
100
AcDbEntity
  8
0
 62
7
100
AcDbPolyline
 90
5
 70
1
 10
54.385000
 20
105.272000
 30
0.0
 10
41.740000
 20
105.272000
 30
0.0
 10
41.740000
 20
111.515000
 30
0.0
 10
54.385000
 20
111.515000
 30
0.0
 10
54.385000
 20
105.272000
 30
0.0
  0
LWPOLYLINE
  5
10f
100
AcDbEntity
  8
0
 62
7
100
AcDbPolyline
 90
5
 70
1
 10
54.385000
 20
113.412000
 30
0.0
 10
41.740000
 20
113.412000
 30
0.0
 10
41.740000
 20
119.655000
 30
0.0
 10
54.385000
 20
119.655000
 30
0.0
 10
54.385000
 20
113.412000
 30
0.0
  0
LWPOLYLINE
  5
110
100
AcDbEntity
  8
0
 62
7
100
AcDbPolyline
 90
5
 70
1
 10
123.936000
 20
138.624000
 30
0.0
 10
123.936000
 20
125.979000
 30
0.0
 10
117.693000
 20
125.979000
 30
0.0
 10
117.693000
 20
138.624000
 30
0.0
 10
123.936000
 20
138.624000
 30
0.0
  0
LWPOLYLINE
  5
111
100
AcDbEntity
  8
0
 62
7
100
AcDbPolyline
 90
5
 70
1
 10
115.796000
 20
138.624000
 30
0.0
 10
115.796000
 20
125.979000
 30
0.0
 10
109.553000
 20
125.979000
 30
0.0
 10
109.553000
 20
138.624000
 30
0.0
 10
115.796000
 20
138.624000
 30
0.0
  0
LWPOLYLINE
  5
112
100
AcDbEntity
  8
0
 62
7
100
AcDbPolyline
 90
5
 70
1
 10
107.655000
 20
138.624000
 30
0.0
 10
107.655000
 20
125.979000
 30
0.0
 10
101.412000
 20
125.979000
 30
0.0
 10
101.412000
 20
138.624000
 30
0.0
 10
107.655000
 20
138.624000
 30
0.0
  0
LWPOLYLINE
  5
113
100
AcDbEntity
  8
0
 62
7
100
AcDbPolyline
 90
5
 70
1
 10
99.515000
 20
138.624000
 30
0.0
 10
99.515000
 20
125.979000
 30
0.0
 10
93.272000
 20
125.979000
 30
0.0
 10
93.272000
 20
138.624000
 30
0.0
 10
99.515000
 20
138.624000
 30
0.0
  0
LWPOLYLINE
  5
114
100
AcDbEntity
  8
0
 62
7
100
AcDbPolyline
 90
5
 70
1
 10
91.374000
 20
138.624000
 30
0.0
 10
91.374000
 20
125.979000
 30
0.0
 10
85.131000
 20
125.979000
 30
0.0
 10
85.131000
 20
138.624000
 30
0.0
 10
91.374000
 20
138.624000
 30
0.0
  0
LWPOLYLINE
  5
115
100
AcDbEntity
  8
0
 62
7
100
AcDbPolyline
 90
5
 70
1
 10
83.234000
 20
138.624000
 30
0.0
 10
83.234000
 20
125.979000
 30
0.0
 10
76.991000
 20
125.979000
 30
0.0
 10
76.991000
 20
138.624000
 30
0.0
 10
83.234000
 20
138.624000
 30
0.0
  0
LWPOLYLINE
  5
116
100
AcDbEntity
  8
0
 62
7
100
AcDbPolyline
 90
5
 70
1
 10
75.094000
 20
138.624000
 30
0.0
 10
75.094000
 20
125.979000
 30
0.0
 10
68.851000
 20
125.979000
 30
0.0
 10
68.851000
 20
138.624000
 30
0.0
 10
75.094000
 20
138.624000
 30
0.0
  0
LWPOLYLINE
  5
117
100
AcDbEntity
  8
0
 62
7
100
AcDbPolyline
 90
5
 70
1
 10
66.953000
 20
138.624000
 30
0.0
 10
66.953000
 20
125.979000
 30
0.0
 10
60.710000
 20
125.979000
 30
0.0
 10
60.710000
 20
138.624000
 30
0.0
 10
66.953000
 20
138.624000
 30
0.0
  0
LWPOLYLINE
  5
118
100
AcDbEntity
  8
0
 62
7
100
AcDbPolyline
 90
5
 70
1
 10
123.936000
 20
50.106000
 30
0.0
 10
123.936000
 20
37.461000
 30
0.0
 10
117.693000
 20
37.461000
 30
0.0
 10
117.693000
 20
50.106000
 30
0.0
 10
123.936000
 20
50.106000
 30
0.0
  0
LWPOLYLINE
  5
119
100
AcDbEntity
  8
0
 62
7
100
AcDbPolyline
 90
5
 70
1
 10
115.796000
 20
50.106000
 30
0.0
 10
115.796000
 20
37.461000
 30
0.0
 10
109.553000
 20
37.461000
 30
0.0
 10
109.553000
 20
50.106000
 30
0.0
 10
115.796000
 20
50.106000
 30
0.0
  0
LWPOLYLINE
  5
11a
100
AcDbEntity
  8
0
 62
7
100
AcDbPolyline
 90
5
 70
1
 10
107.655000
 20
50.106000
 30
0.0
 10
107.655000
 20
37.461000
 30
0.0
 10
101.412000
 20
37.461000
 30
0.0
 10
101.412000
 20
50.106000
 30
0.0
 10
107.655000
 20
50.106000
 30
0.0
  0
LWPOLYLINE
  5
11b
100
AcDbEntity
  8
0
 62
7
100
AcDbPolyline
 90
5
 70
1
 10
99.515000
 20
50.106000
 30
0.0
 10
99.515000
 20
37.461000
 30
0.0
 10
93.272000
 20
37.461000
 30
0.0
 10
93.272000
 20
50.106000
 30
0.0
 10
99.515000
 20
50.106000
 30
0.0
  0
LWPOLYLINE
  5
11c
100
AcDbEntity
  8
0
 62
7
100
AcDbPolyline
 90
5
 70
1
 10
91.374000
 20
50.106000
 30
0.0
 10
91.374000
 20
37.461000
 30
0.0
 10
85.131000
 20
37.461000
 30
0.0
 10
85.131000
 20
50.106000
 30
0.0
 10
91.374000
 20
50.106000
 30
0.0
  0
LWPOLYLINE
  5
11d
100
AcDbEntity
  8
0
 62
7
100
AcDbPolyline
 90
5
 70
1
 10
83.234000
 20
50.106000
 30
0.0
 10
83.234000
 20
37.461000
 30
0.0
 10
76.991000
 20
37.461000
 30
0.0
 10
76.991000
 20
50.106000
 30
0.0
 10
83.234000
 20
50.106000
 30
0.0
  0
LWPOLYLINE
  5
11e
100
AcDbEntity
  8
0
 62
7
100
AcDbPolyline
 90
5
 70
1
 10
75.094000
 20
50.106000
 30
0.0
 10
75.094000
 20
37.461000
 30
0.0
 10
68.851000
 20
37.461000
 30
0.0
 10
68.851000
 20
50.106000
 30
0.0
 10
75.094000
 20
50.106000
 30
0.0
  0
LWPOLYLINE
  5
11f
100
AcDbEntity
  8
0
 62
7
100
AcDbPolyline
 90
5
 70
1
 10
66.953000
 20
50.106000
 30
0.0
 10
66.953000
 20
37.461000
 30
0.0
 10
60.710000
 20
37.461000
 30
0.0
 10
60.710000
 20
50.106000
 30
0.0
 10
66.953000
 20
50.106000
 30
0.0
  0
LWPOLYLINE
  5
120
100
AcDbEntity
  8
0
 62
7
100
AcDbPolyline
 90
5
 70
1
 10
18.054000
 20
84.392000
 30
0.0
 10
1.091000
 20
84.392000
 30
0.0
 10
1.091000
 20
97.501000
 30
0.0
 10
18.054000
 20
97.501000
 30
0.0
 10
18.054000
 20
84.392000
 30
0.0
  0
LWPOLYLINE
  5
121
100
AcDbEntity
  8
0
 62
7
100
AcDbPolyline
 90
5
 70
1
 10
18.054000
 20
60.465000
 30
0.0
 10
1.091000
 20
60.465000
 30
0.0
 10
1.091000
 20
73.574000
 30
0.0
 10
18.054000
 20
73.574000
 30
0.0
 10
18.054000
 20
60.465000
 30
0.0
  0
LWPOLYLINE
  5
122
100
AcDbEntity
  8
0
 62
7
100
AcDbPolyline
 90
5
 70
1
 10
179.028000
 20
86.517000
 30
0.0
 10
179.028000
 20
103.480000
 30
0.0
 10
192.137000
 20
103.480000
 30
0.0
 10
192.137000
 20
86.517000
 30
0.0
 10
179.028000
 20
86.517000
 30
0.0
  0
LWPOLYLINE
  5
123
100
AcDbEntity
  8
0
 62
7
100
AcDbPolyline
 90
5
 70
1
 10
179.028000
 20
65.020000
 30
0.0
 10
179.028000
 20
81.983000
 30
0.0
 10
192.137000
 20
81.983000
 30
0.0
 10
192.137000
 20
65.020000
 30
0.0
 10
179.028000
 20
65.020000
 30
0.0
  0
LWPOLYLINE
  5
124
100
AcDbEntity
  8
0
 62
7
100
AcDbPolyline
 90
5
 70
1
 10
202.718000
 20
86.293000
 30
0.0
 10
202.718000
 20
103.256000
 30
0.0
 10
215.827000
 20
103.256000
 30
0.0
 10
215.827000
 20
86.293000
 30
0.0
 10
202.718000
 20
86.293000
 30
0.0
  0
LWPOLYLINE
  5
125
100
AcDbEntity
  8
0
 62
7
100
AcDbPolyline
 90
5
 70
1
 10
202.718000
 20
64.796000
 30
0.0
 10
202.718000
 20
81.759000
 30
0.0
 10
215.827000
 20
81.759000
 30
0.0
 10
215.827000
 20
64.796000
 30
0.0
 10
202.718000
 20
64.796000
 30
0.0
  0
LWPOLYLINE
  5
126
100
AcDbEntity
  8
0
 62
7
100
AcDbPolyline
 90
8
 70
1
 10
9.089000
 20
91.885000
 30
0.0
 10
9.722000
 20
91.885000
 30
0.0
 10
9.722000
 20
101.367000
 30
0.0
 10
15.796000
 20
108.168000
 30
0.0
 10
51.274000
 20
108.168000
 30
0.0
 10
51.274000
 20
108.800000
 30
0.0
 10
15.534000
 20
108.800000
 30
0.0
 10
9.089000
 20
101.629000
 30
0.0
  0
SPLINE
  5
127
100
AcDbEntity
  8
0
 62
7
100
AcDbSpline
 70
8
 71
3
 72
8
 73
4
 74
0
 40
0
 40
0
 40
0
 40
0
 40
1
 40
1
 40
1
 40
1
 10
14.733000
 20
66.941000
 30
0.0
 10
10.845000
 20
68.423000
 30
0.0
 10
7.552000
 20
66.431000
 30
0.0
 10
14.995000
 20
67.573000
 30
0.0
  0
LWPOLYLINE
  5
128
100
AcDbEntity
  8
0
 62
7
100
AcDbPolyline
 90
4
 70
0
 10
14.995000
 20
67.573000
 30
0.0
 10
50.473000
 20
67.573000
 30
0.0
 10
50.473000
 20
66.941000
 30
0.0
 10
14.733000
 20
66.941000
 30
0.0
  0
LWPOLYLINE
  5
129
100
AcDbEntity
  8
0
 62
7
100
AcDbPolyline
 90
1
 70
1
 10
14.995000
 20
67.573000
 30
0.0
  0
LWPOLYLINE
  5
12a
100
AcDbEntity
  8
0
 62
7
100
AcDbPolyline
 90
8
 70
1
 10
31.397000
 20
90.477000
 30
0.0
 10
32.029000
 20
90.477000
 30
0.0
 10
32.029000
 20
90.496000
 30
0.0
 10
38.104000
 20
83.695000
 30
0.0
 10
51.768000
 20
83.695000
 30
0.0
 10
51.768000
 20
83.063000
 30
0.0
 10
37.842000
 20
83.063000
 30
0.0
 10
31.397000
 20
90.234000
 30
0.0
  0
SPLINE
  5
12b
100
AcDbEntity
  8
0
 62
7
100
AcDbSpline
 70
8
 71
3
 72
8
 73
4
 74
0
 40
0
 40
0
 40
0
 40
0
 40
1
 40
1
 40
1
 40
1
 10
9.871000
 20
90.618000
 30
0.0
 10
12.801000
 20
89.248000
 30
0.0
 10
12.526000
 20
89.228000
 30
0.0
 10
10.133000
 20
89.986000
 30
0.0
  0
LWPOLYLINE
  5
12c
100
AcDbEntity
  8
0
 62
7
100
AcDbPolyline
 90
4
 70
0
 10
10.133000
 20
89.986000
 30
0.0
 10
31.751000
 20
89.986000
 30
0.0
 10
31.751000
 20
90.618000
 30
0.0
 10
9.871000
 20
90.618000
 30
0.0
  0
LWPOLYLINE
  5
12d
100
AcDbEntity
  8
0
 62
7
100
AcDbPolyline
 90
1
 70
1
 10
10.133000
 20
89.986000
 30
0.0
  0
LWPOLYLINE
  5
12e
100
AcDbEntity
  8
0
 62
7
100
AcDbPolyline
 90
8
 70
1
 10
190.077000
 20
114.859000
 30
0.0
 10
189.445000
 20
114.859000
 30
0.0
 10
174.745000
 20
115.019000
 30
0.0
 10
161.557000
 20
100.947000
 30
0.0
 10
131.928000
 20
100.472000
 30
0.0
 10
131.928000
 20
99.840000
 30
0.0
 10
161.819000
 20
100.314000
 30
0.0
 10
175.377000
 20
114.757000
 30
0.0
  0
SPLINE
  5
12f
100
AcDbEntity
  8
0
 62
7
100
AcDbSpline
 70
8
 71
3
 72
8
 73
4
 74
0
 40
0
 40
0
 40
0
 40
0
 40
1
 40
1
 40
1
 40
1
 10
185.734000
 20
75.938000
 30
0.0
 10
182.179000
 20
76.216000
 30
0.0
 10
181.426000
 20
75.818000
 30
0.0
 10
185.473000
 20
76.570000
 30
0.0
  0
LWPOLYLINE
  5
130
100
AcDbEntity
  8
0
 62
7
100
AcDbPolyline
 90
4
 70
0
 10
185.473000
 20
76.570000
 30
0.0
 10
135.243000
 20
76.570000
 30
0.0
 10
135.243000
 20
75.938000
 30
0.0
 10
185.734000
 20
75.938000
 30
0.0
  0
LWPOLYLINE
  5
131
100
AcDbEntity
  8
0
 62
7
100
AcDbPolyline
 90
1
 70
1
 10
185.473000
 20
76.570000
 30
0.0
  0
LWPOLYLINE
  5
132
100
AcDbEntity
  8
0
 62
7
100
AcDbPolyline
 90
8
 70
1
 10
185.731000
 20
94.762000
 30
0.0
 10
185.099000
 20
94.762000
 30
0.0
 10
172.730000
 20
95.119000
 30
0.0
 10
162.270000
 20
84.169000
 30
0.0
 10
136.276000
 20
84.169000
 30
0.0
 10
136.276000
 20
83.537000
 30
0.0
 10
162.531000
 20
83.537000
 30
0.0
 10
173.363000
 20
94.858000
 30
0.0
  0
LWPOLYLINE
  5
133
100
AcDbEntity
  8
0
 62
7
100
AcDbPolyline
 90
6
 70
1
 10
190.315000
 20
114.193000
 30
0.0
 10
197.195000
 20
107.171000
 30
0.0
 10
197.276000
 20
53.979000
 30
0.0
 10
197.908000
 20
53.979000
 30
0.0
 10
197.827000
 20
107.432000
 30
0.0
 10
190.577000
 20
114.826000
 30
0.0
  0
LWPOLYLINE
  5
134
100
AcDbEntity
  8
0
 62
7
100
AcDbPolyline
 90
8
 70
1
 10
137.092000
 20
149.187000
 30
0.0
 10
137.092000
 20
148.554000
 30
0.0
 10
127.610000
 20
148.554000
 30
0.0
 10
120.809000
 20
142.480000
 30
0.0
 10
120.809000
 20
131.266000
 30
0.0
 10
120.177000
 20
131.266000
 30
0.0
 10
120.177000
 20
142.742000
 30
0.0
 10
127.348000
 20
149.187000
 30
0.0
  0
LWPOLYLINE
  5
135
100
AcDbEntity
  8
0
 62
7
100
AcDbPolyline
 90
8
 70
1
 10
72.813000
 20
163.540000
 30
0.0
 10
72.813000
 20
162.907000
 30
0.0
 10
72.794000
 20
151.283000
 30
0.0
 10
79.595000
 20
145.209000
 30
0.0
 10
79.595000
 20
133.994000
 30
0.0
 10
80.227000
 20
133.994000
 30
0.0
 10
80.227000
 20
145.471000
 30
0.0
 10
73.056000
 20
151.915000
 30
0.0
  0
LWPOLYLINE
  5
136
100
AcDbEntity
  8
0
 62
7
100
AcDbPolyline
 90
8
 70
1
 10
112.726000
 20
171.378000
 30
0.0
 10
112.726000
 20
170.746000
 30
0.0
 10
103.243000
 20
170.746000
 30
0.0
 10
96.443000
 20
164.671000
 30
0.0
 10
96.443000
 20
129.193000
 30
0.0
 10
95.810000
 20
129.193000
 30
0.0
 10
95.810000
 20
164.933000
 30
0.0
 10
102.982000
 20
171.378000
 30
0.0
  0
LWPOLYLINE
  5
137
100
AcDbEntity
  8
0
 62
7
100
AcDbPolyline
 90
8
 70
1
 10
111.478000
 20
155.736000
 30
0.0
 10
111.478000
 20
155.104000
 30
0.0
 10
111.496000
 20
147.075000
 30
0.0
 10
104.696000
 20
141.001000
 30
0.0
 10
104.696000
 20
129.787000
 30
0.0
 10
104.063000
 20
129.787000
 30
0.0
 10
104.063000
 20
141.263000
 30
0.0
 10
111.235000
 20
147.708000
 30
0.0
  0
SPLINE
  5
138
100
AcDbEntity
  8
0
 62
7
100
AcDbSpline
 70
8
 71
3
 72
8
 73
4
 74
0
 40
0
 40
0
 40
0
 40
0
 40
1
 40
1
 40
1
 40
1
 10
87.637000
 20
129.252000
 30
0.0
 10
87.916000
 20
132.807000
 30
0.0
 10
87.518000
 20
133.560000
 30
0.0
 10
88.270000
 20
129.513000
 30
0.0
  0
LWPOLYLINE
  5
139
100
AcDbEntity
  8
0
 62
7
100
AcDbPolyline
 90
4
 70
0
 10
88.270000
 20
129.513000
 30
0.0
 10
88.270000
 20
179.743000
 30
0.0
 10
87.637000
 20
179.743000
 30
0.0
 10
87.637000
 20
129.252000
 30
0.0
  0
LWPOLYLINE
  5
13a
100
AcDbEntity
  8
0
 62
7
100
AcDbPolyline
 90
1
 70
1
 10
88.270000
 20
129.513000
 30
0.0
  0
LWPOLYLINE
  5
13b
100
AcDbEntity
  8
0
 62
7
100
AcDbPolyline
 90
8
 70
1
 10
129.233000
 20
3.170000
 30
0.0
 10
129.233000
 20
3.802000
 30
0.0
 10
119.750000
 20
3.802000
 30
0.0
 10
112.950000
 20
9.876000
 30
0.0
 10
112.950000
 20
45.354000
 30
0.0
 10
112.317000
 20
45.354000
 30
0.0
 10
112.317000
 20
9.615000
 30
0.0
 10
119.489000
 20
3.170000
 30
0.0
  0
LWPOLYLINE
  5
13c
100
AcDbEntity
  8
0
 62
7
100
AcDbPolyline
 90
8
 70
1
 10
55.255000
 20
3.170000
 30
0.0
 10
55.255000
 20
3.802000
 30
0.0
 10
64.737000
 20
3.802000
 30
0.0
 10
71.537000
 20
9.876000
 30
0.0
 10
71.537000
 20
45.354000
 30
0.0
 10
72.170000
 20
45.354000
 30
0.0
 10
72.170000
 20
9.615000
 30
0.0
 10
64.998000
 20
3.170000
 30
0.0
  0
LWPOLYLINE
  5
13d
100
AcDbEntity
  8
0
 62
7
100
AcDbPolyline
 90
8
 70
1
 10
47.143000
 20
148.913000
 30
0.0
 10
47.143000
 20
148.280000
 30
0.0
 10
56.626000
 20
148.280000
 30
0.0
 10
63.426000
 20
142.206000
 30
0.0
 10
63.426000
 20
130.992000
 30
0.0
 10
64.059000
 20
130.992000
 30
0.0
 10
64.059000
 20
142.468000
 30
0.0
 10
56.887000
 20
148.913000
 30
0.0
  0
LWPOLYLINE
  5
13e
100
AcDbEntity
  8
0
 62
7
100
AcDbPolyline
 90
8
 70
1
 10
190.077000
 20
45.244000
 30
0.0
 10
189.445000
 20
45.244000
 30
0.0
 10
174.745000
 20
45.084000
 30
0.0
 10
161.557000
 20
59.156000
 30
0.0
 10
131.928000
 20
59.631000
 30
0.0
 10
131.928000
 20
60.263000
 30
0.0
 10
161.819000
 20
59.789000
 30
0.0
 10
175.377000
 20
45.346000
 30
0.0
  0
SPLINE
  5
13f
100
AcDbEntity
  8
0
 62
7
100
AcDbSpline
 70
8
 71
3
 72
8
 73
4
 74
0
 40
0
 40
0
 40
0
 40
0
 40
1
 40
1
 40
1
 40
1
 10
143.576000
 20
148.867000
 30
0.0
 10
143.576000
 20
150.433000
 30
0.0
 10
142.304000
 20
151.705000
 30
0.0
 10
140.738000
 20
151.705000
 30
0.0
  0
SPLINE
  5
140
100
AcDbEntity
  8
0
 62
7
100
AcDbSpline
 70
8
 71
3
 72
8
 73
4
 74
0
 40
0
 40
0
 40
0
 40
0
 40
1
 40
1
 40
1
 40
1
 10
140.738000
 20
151.705000
 30
0.0
 10
139.172000
 20
151.705000
 30
0.0
 10
137.900000
 20
150.433000
 30
0.0
 10
137.900000
 20
148.867000
 30
0.0
  0
SPLINE
  5
141
100
AcDbEntity
  8
0
 62
7
100
AcDbSpline
 70
8
 71
3
 72
8
 73
4
 74
0
 40
0
 40
0
 40
0
 40
0
 40
1
 40
1
 40
1
 40
1
 10
137.900000
 20
148.867000
 30
0.0
 10
137.900000
 20
147.301000
 30
0.0
 10
139.172000
 20
146.029000
 30
0.0
 10
140.738000
 20
146.029000
 30
0.0
  0
SPLINE
  5
142
100
AcDbEntity
  8
0
 62
7
100
AcDbSpline
 70
8
 71
3
 72
8
 73
4
 74
0
 40
0
 40
0
 40
0
 40
0
 40
1
 40
1
 40
1
 40
1
 10
140.738000
 20
146.029000
 30
0.0
 10
142.304000
 20
146.029000
 30
0.0
 10
143.576000
 20
147.301000
 30
0.0
 10
143.576000
 20
148.867000
 30
0.0
  0
LWPOLYLINE
  5
143
100
AcDbEntity
  8
0
 62
7
100
AcDbPolyline
 90
6
 70
1
 10
190.315000
 20
46.209000
 30
0.0
 10
197.195000
 20
53.231000
 30
0.0
 10
197.276000
 20
106.423000
 30
0.0
 10
197.908000
 20
106.423000
 30
0.0
 10
197.827000
 20
52.970000
 30
0.0
 10
190.577000
 20
45.576000
 30
0.0
  0
SPLINE
  5
144
100
AcDbEntity
  8
0
 62
7
100
AcDbSpline
 70
8
 71
3
 72
8
 73
4
 74
0
 40
0
 40
0
 40
0
 40
0
 40
1
 40
1
 40
1
 40
1
 10
114.287000
 20
159.253000
 30
0.0
 10
114.287000
 20
160.819000
 30
0.0
 10
113.015000
 20
162.091000
 30
0.0
 10
111.449000
 20
162.091000
 30
0.0
  0
SPLINE
  5
145
100
AcDbEntity
  8
0
 62
7
100
AcDbSpline
 70
8
 71
3
 72
8
 73
4
 74
0
 40
0
 40
0
 40
0
 40
0
 40
1
 40
1
 40
1
 40
1
 10
111.449000
 20
162.091000
 30
0.0
 10
109.883000
 20
162.091000
 30
0.0
 10
108.611000
 20
160.819000
 30
0.0
 10
108.611000
 20
159.253000
 30
0.0
  0
SPLINE
  5
146
100
AcDbEntity
  8
0
 62
7
100
AcDbSpline
 70
8
 71
3
 72
8
 73
4
 74
0
 40
0
 40
0
 40
0
 40
0
 40
1
 40
1
 40
1
 40
1
 10
108.611000
 20
159.253000
 30
0.0
 10
108.611000
 20
157.687000
 30
0.0
 10
109.883000
 20
156.415000
 30
0.0
 10
111.449000
 20
156.415000
 30
0.0
  0
SPLINE
  5
147
100
AcDbEntity
  8
0
 62
7
100
AcDbSpline
 70
8
 71
3
 72
8
 73
4
 74
0
 40
0
 40
0
 40
0
 40
0
 40
1
 40
1
 40
1
 40
1
 10
111.449000
 20
156.415000
 30
0.0
 10
113.015000
 20
156.415000
 30
0.0
 10
114.287000
 20
157.687000
 30
0.0
 10
114.287000
 20
159.253000
 30
0.0
  0
LWPOLYLINE
  5
148
100
AcDbEntity
  8
0
 62
7
100
AcDbPolyline
 90
1
 70
1
 10
143.576000
 20
148.867000
 30
0.0
  0
SPLINE
  5
149
100
AcDbEntity
  8
0
 62
7
100
AcDbSpline
 70
8
 71
3
 72
8
 73
4
 74
0
 40
0
 40
0
 40
0
 40
0
 40
1
 40
1
 40
1
 40
1
 10
119.069000
 20
170.753000
 30
0.0
 10
119.069000
 20
172.319000
 30
0.0
 10
117.797000
 20
173.591000
 30
0.0
 10
116.231000
 20
173.591000
 30
0.0
  0
SPLINE
  5
14a
100
AcDbEntity
  8
0
 62
7
100
AcDbSpline
 70
8
 71
3
 72
8
 73
4
 74
0
 40
0
 40
0
 40
0
 40
0
 40
1
 40
1
 40
1
 40
1
 10
116.231000
 20
173.591000
 30
0.0
 10
114.665000
 20
173.591000
 30
0.0
 10
113.393000
 20
172.319000
 30
0.0
 10
113.393000
 20
170.753000
 30
0.0
  0
SPLINE
  5
14b
100
AcDbEntity
  8
0
 62
7
100
AcDbSpline
 70
8
 71
3
 72
8
 73
4
 74
0
 40
0
 40
0
 40
0
 40
0
 40
1
 40
1
 40
1
 40
1
 10
113.393000
 20
170.753000
 30
0.0
 10
113.393000
 20
169.187000
 30
0.0
 10
114.665000
 20
167.915000
 30
0.0
 10
116.231000
 20
167.915000
 30
0.0
  0
SPLINE
  5
14c
100
AcDbEntity
  8
0
 62
7
100
AcDbSpline
 70
8
 71
3
 72
8
 73
4
 74
0
 40
0
 40
0
 40
0
 40
0
 40
1
 40
1
 40
1
 40
1
 10
116.231000
 20
167.915000
 30
0.0
 10
117.797000
 20
167.915000
 30
0.0
 10
119.069000
 20
169.187000
 30
0.0
 10
119.069000
 20
170.753000
 30
0.0
  0
LWPOLYLINE
  5
14d
100
AcDbEntity
  8
0
 62
7
100
AcDbPolyline
 90
1
 70
1
 10
114.287000
 20
159.253000
 30
0.0
  0
SPLINE
  5
14e
100
AcDbEntity
  8
0
 62
7
100
AcDbSpline
 70
8
 71
3
 72
8
 73
4
 74
0
 40
0
 40
0
 40
0
 40
0
 40
1
 40
1
 40
1
 40
1
 10
90.787000
 20
183.258000
 30
0.0
 10
90.787000
 20
184.824000
 30
0.0
 10
89.515000
 20
186.096000
 30
0.0
 10
87.949000
 20
186.096000
 30
0.0
  0
SPLINE
  5
14f
100
AcDbEntity
  8
0
 62
7
100
AcDbSpline
 70
8
 71
3
 72
8
 73
4
 74
0
 40
0
 40
0
 40
0
 40
0
 40
1
 40
1
 40
1
 40
1
 10
87.949000
 20
186.096000
 30
0.0
 10
86.383000
 20
186.096000
 30
0.0
 10
85.111000
 20
184.824000
 30
0.0
 10
85.111000
 20
183.258000
 30
0.0
  0
SPLINE
  5
150
100
AcDbEntity
  8
0
 62
7
100
AcDbSpline
 70
8
 71
3
 72
8
 73
4
 74
0
 40
0
 40
0
 40
0
 40
0
 40
1
 40
1
 40
1
 40
1
 10
85.111000
 20
183.258000
 30
0.0
 10
85.111000
 20
181.692000
 30
0.0
 10
86.383000
 20
180.420000
 30
0.0
 10
87.949000
 20
180.420000
 30
0.0
  0
SPLINE
  5
151
100
AcDbEntity
  8
0
 62
7
100
AcDbSpline
 70
8
 71
3
 72
8
 73
4
 74
0
 40
0
 40
0
 40
0
 40
0
 40
1
 40
1
 40
1
 40
1
 10
87.949000
 20
180.420000
 30
0.0
 10
89.515000
 20
180.420000
 30
0.0
 10
90.787000
 20
181.692000
 30
0.0
 10
90.787000
 20
183.258000
 30
0.0
  0
LWPOLYLINE
  5
152
100
AcDbEntity
  8
0
 62
7
100
AcDbPolyline
 90
1
 70
1
 10
119.069000
 20
170.753000
 30
0.0
  0
SPLINE
  5
153
100
AcDbEntity
  8
0
 62
7
100
AcDbSpline
 70
8
 71
3
 72
8
 73
4
 74
0
 40
0
 40
0
 40
0
 40
0
 40
1
 40
1
 40
1
 40
1
 10
75.642000
 20
167.219000
 30
0.0
 10
75.642000
 20
168.785000
 30
0.0
 10
74.370000
 20
170.057000
 30
0.0
 10
72.804000
 20
170.057000
 30
0.0
  0
SPLINE
  5
154
100
AcDbEntity
  8
0
 62
7
100
AcDbSpline
 70
8
 71
3
 72
8
 73
4
 74
0
 40
0
 40
0
 40
0
 40
0
 40
1
 40
1
 40
1
 40
1
 10
72.804000
 20
170.057000
 30
0.0
 10
71.238000
 20
170.057000
 30
0.0
 10
69.966000
 20
168.785000
 30
0.0
 10
69.966000
 20
167.219000
 30
0.0
  0
SPLINE
  5
155
100
AcDbEntity
  8
0
 62
7
100
AcDbSpline
 70
8
 71
3
 72
8
 73
4
 74
0
 40
0
 40
0
 40
0
 40
0
 40
1
 40
1
 40
1
 40
1
 10
69.966000
 20
167.219000
 30
0.0
 10
69.966000
 20
165.653000
 30
0.0
 10
71.238000
 20
164.381000
 30
0.0
 10
72.804000
 20
164.381000
 30
0.0
  0
SPLINE
  5
156
100
AcDbEntity
  8
0
 62
7
100
AcDbSpline
 70
8
 71
3
 72
8
 73
4
 74
0
 40
0
 40
0
 40
0
 40
0
 40
1
 40
1
 40
1
 40
1
 10
72.804000
 20
164.381000
 30
0.0
 10
74.370000
 20
164.381000
 30
0.0
 10
75.642000
 20
165.653000
 30
0.0
 10
75.642000
 20
167.219000
 30
0.0
  0
LWPOLYLINE
  5
157
100
AcDbEntity
  8
0
 62
7
100
AcDbPolyline
 90
1
 70
1
 10
90.787000
 20
183.258000
 30
0.0
  0
SPLINE
  5
158
100
AcDbEntity
  8
0
 62
7
100
AcDbSpline
 70
8
 71
3
 72
8
 73
4
 74
0
 40
0
 40
0
 40
0
 40
0
 40
1
 40
1
 40
1
 40
1
 10
46.470000
 20
148.833000
 30
0.0
 10
46.470000
 20
150.399000
 30
0.0
 10
45.198000
 20
151.671000
 30
0.0
 10
43.632000
 20
151.671000
 30
0.0
  0
SPLINE
  5
159
100
AcDbEntity
  8
0
 62
7
100
AcDbSpline
 70
8
 71
3
 72
8
 73
4
 74
0
 40
0
 40
0
 40
0
 40
0
 40
1
 40
1
 40
1
 40
1
 10
43.632000
 20
151.671000
 30
0.0
 10
42.066000
 20
151.671000
 30
0.0
 10
40.794000
 20
150.399000
 30
0.0
 10
40.794000
 20
148.833000
 30
0.0
  0
SPLINE
  5
15a
100
AcDbEntity
  8
0
 62
7
100
AcDbSpline
 70
8
 71
3
 72
8
 73
4
 74
0
 40
0
 40
0
 40
0
 40
0
 40
1
 40
1
 40
1
 40
1
 10
40.794000
 20
148.833000
 30
0.0
 10
40.794000
 20
147.267000
 30
0.0
 10
42.066000
 20
145.995000
 30
0.0
 10
43.632000
 20
145.995000
 30
0.0
  0
SPLINE
  5
15b
100
AcDbEntity
  8
0
 62
7
100
AcDbSpline
 70
8
 71
3
 72
8
 73
4
 74
0
 40
0
 40
0
 40
0
 40
0
 40
1
 40
1
 40
1
 40
1
 10
43.632000
 20
145.995000
 30
0.0
 10
45.198000
 20
145.995000
 30
0.0
 10
46.470000
 20
147.267000
 30
0.0
 10
46.470000
 20
148.833000
 30
0.0
  0
LWPOLYLINE
  5
15c
100
AcDbEntity
  8
0
 62
7
100
AcDbPolyline
 90
1
 70
1
 10
75.642000
 20
167.219000
 30
0.0
  0
SPLINE
  5
15d
100
AcDbEntity
  8
0
 62
7
100
AcDbSpline
 70
8
 71
3
 72
8
 73
4
 74
0
 40
0
 40
0
 40
0
 40
0
 40
1
 40
1
 40
1
 40
1
 10
135.626000
 20
3.792000
 30
0.0
 10
135.626000
 20
5.358000
 30
0.0
 10
134.354000
 20
6.630000
 30
0.0
 10
132.788000
 20
6.630000
 30
0.0
  0
SPLINE
  5
15e
100
AcDbEntity
  8
0
 62
7
100
AcDbSpline
 70
8
 71
3
 72
8
 73
4
 74
0
 40
0
 40
0
 40
0
 40
0
 40
1
 40
1
 40
1
 40
1
 10
132.788000
 20
6.630000
 30
0.0
 10
131.222000
 20
6.630000
 30
0.0
 10
129.950000
 20
5.358000
 30
0.0
 10
129.950000
 20
3.792000
 30
0.0
  0
SPLINE
  5
15f
100
AcDbEntity
  8
0
 62
7
100
AcDbSpline
 70
8
 71
3
 72
8
 73
4
 74
0
 40
0
 40
0
 40
0
 40
0
 40
1
 40
1
 40
1
 40
1
 10
129.950000
 20
3.792000
 30
0.0
 10
129.950000
 20
2.226000
 30
0.0
 10
131.222000
 20
0.954000
 30
0.0
 10
132.788000
 20
0.954000
 30
0.0
  0
SPLINE
  5
160
100
AcDbEntity
  8
0
 62
7
100
AcDbSpline
 70
8
 71
3
 72
8
 73
4
 74
0
 40
0
 40
0
 40
0
 40
0
 40
1
 40
1
 40
1
 40
1
 10
132.788000
 20
0.954000
 30
0.0
 10
134.354000
 20
0.954000
 30
0.0
 10
135.626000
 20
2.226000
 30
0.0
 10
135.626000
 20
3.792000
 30
0.0
  0
LWPOLYLINE
  5
161
100
AcDbEntity
  8
0
 62
7
100
AcDbPolyline
 90
1
 70
1
 10
46.470000
 20
148.833000
 30
0.0
  0
SPLINE
  5
162
100
AcDbEntity
  8
0
 62
7
100
AcDbSpline
 70
8
 71
3
 72
8
 73
4
 74
0
 40
0
 40
0
 40
0
 40
0
 40
1
 40
1
 40
1
 40
1
 10
54.537000
 20
3.792000
 30
0.0
 10
54.537000
 20
5.358000
 30
0.0
 10
53.265000
 20
6.630000
 30
0.0
 10
51.699000
 20
6.630000
 30
0.0
  0
SPLINE
  5
163
100
AcDbEntity
  8
0
 62
7
100
AcDbSpline
 70
8
 71
3
 72
8
 73
4
 74
0
 40
0
 40
0
 40
0
 40
0
 40
1
 40
1
 40
1
 40
1
 10
51.699000
 20
6.630000
 30
0.0
 10
50.133000
 20
6.630000
 30
0.0
 10
48.861000
 20
5.358000
 30
0.0
 10
48.861000
 20
3.792000
 30
0.0
  0
SPLINE
  5
164
100
AcDbEntity
  8
0
 62
7
100
AcDbSpline
 70
8
 71
3
 72
8
 73
4
 74
0
 40
0
 40
0
 40
0
 40
0
 40
1
 40
1
 40
1
 40
1
 10
48.861000
 20
3.792000
 30
0.0
 10
48.861000
 20
2.226000
 30
0.0
 10
50.133000
 20
0.954000
 30
0.0
 10
51.699000
 20
0.954000
 30
0.0
  0
SPLINE
  5
165
100
AcDbEntity
  8
0
 62
7
100
AcDbSpline
 70
8
 71
3
 72
8
 73
4
 74
0
 40
0
 40
0
 40
0
 40
0
 40
1
 40
1
 40
1
 40
1
 10
51.699000
 20
0.954000
 30
0.0
 10
53.265000
 20
0.954000
 30
0.0
 10
54.537000
 20
2.226000
 30
0.0
 10
54.537000
 20
3.792000
 30
0.0
  0
LWPOLYLINE
  5
166
100
AcDbEntity
  8
0
 62
7
100
AcDbPolyline
 90
1
 70
1
 10
135.626000
 20
3.792000
 30
0.0
  0
LWPOLYLINE
  5
167
100
AcDbEntity
  8
0
 62
7
100
AcDbPolyline
 90
1
 70
1
 10
54.537000
 20
3.792000
 30
0.0
  0
LWPOLYLINE
  5
168
100
AcDbEntity
  8
0
 62
7
100
AcDbPolyline
 90
5
 70
1
 10
57.548000
 20
53.268000
 30
0.0
 10
57.548000
 20
122.817000
 30
0.0
 10
127.097000
 20
122.817000
 30
0.0
 10
127.097000
 20
53.268000
 30
0.0
 10
57.548000
 20
53.268000
 30
0.0
  0
LWPOLYLINE
  5
169
100
AcDbEntity
  8
0
 62
7
100
AcDbPolyline
 90
5
 70
1
 10
78.413000
 20
56.429000
 30
0.0
 10
78.413000
 20
74.133000
 30
0.0
 10
60.709000
 20
74.133000
 30
0.0
 10
60.709000
 20
56.429000
 30
0.0
 10
78.413000
 20
56.429000
 30
0.0
  0
LWPOLYLINE
  5
16a
100
AcDbEntity
  8
0
 62
7
100
AcDbPolyline
 90
17
 70
1
 10
83.471000
 20
56.429000
 30
0.0
 10
83.471000
 20
58.958000
 30
0.0
 10
86.000000
 20
58.958000
 30
0.0
 10
86.000000
 20
64.016000
 30
0.0
 10
83.471000
 20
64.016000
 30
0.0
 10
83.471000
 20
66.545000
 30
0.0
 10
86.000000
 20
66.545000
 30
0.0
 10
86.000000
 20
64.016000
 30
0.0
 10
88.529000
 20
64.016000
 30
0.0
 10
88.529000
 20
69.075000
 30
0.0
 10
86.000000
 20
69.075000
 30
0.0
 10
86.000000
 20
71.604000
 30
0.0
 10
83.471000
 20
71.604000
 30
0.0
 10
83.471000
 20
69.075000
 30
0.0
 10
80.942000
 20
69.075000
 30
0.0
 10
80.942000
 20
56.429000
 30
0.0
 10
83.471000
 20
56.429000
 30
0.0
  0
LWPOLYLINE
  5
16b
100
AcDbEntity
  8
0
 62
7
100
AcDbPolyline
 90
9
 70
1
 10
91.058000
 20
56.429000
 30
0.0
 10
91.058000
 20
61.487000
 30
0.0
 10
93.587000
 20
61.487000
 30
0.0
 10
93.587000
 20
64.016000
 30
0.0
 10
88.529000
 20
64.016000
 30
0.0
 10
88.529000
 20
58.958000
 30
0.0
 10
86.000000
 20
58.958000
 30
0.0
 10
86.000000
 20
56.429000
 30
0.0
 10
91.058000
 20
56.429000
 30
0.0
  0
LWPOLYLINE
  5
16c
100
AcDbEntity
  8
0
 62
7
100
AcDbPolyline
 90
69
 70
1
 10
123.936000
 20
56.429000
 30
0.0
 10
123.936000
 20
69.075000
 30
0.0
 10
121.407000
 20
69.075000
 30
0.0
 10
121.407000
 20
66.545000
 30
0.0
 10
118.878000
 20
66.545000
 30
0.0
 10
118.878000
 20
69.075000
 30
0.0
 10
116.349000
 20
69.075000
 30
0.0
 10
116.349000
 20
71.604000
 30
0.0
 10
118.878000
 20
71.604000
 30
0.0
 10
118.878000
 20
69.075000
 30
0.0
 10
121.407000
 20
69.075000
 30
0.0
 10
121.407000
 20
71.604000
 30
0.0
 10
123.936000
 20
71.604000
 30
0.0
 10
123.936000
 20
74.133000
 30
0.0
 10
118.878000
 20
74.133000
 30
0.0
 10
118.878000
 20
79.191000
 30
0.0
 10
116.349000
 20
79.191000
 30
0.0
 10
116.349000
 20
76.662000
 30
0.0
 10
113.820000
 20
76.662000
 30
0.0
 10
113.820000
 20
79.191000
 30
0.0
 10
111.291000
 20
79.191000
 30
0.0
 10
111.291000
 20
81.720000
 30
0.0
 10
101.175000
 20
81.720000
 30
0.0
 10
101.175000
 20
84.249000
 30
0.0
 10
98.645000
 20
84.249000
 30
0.0
 10
98.645000
 20
81.720000
 30
0.0
 10
96.116000
 20
81.720000
 30
0.0
 10
96.116000
 20
79.191000
 30
0.0
 10
101.175000
 20
79.191000
 30
0.0
 10
101.175000
 20
76.662000
 30
0.0
 10
91.058000
 20
76.662000
 30
0.0
 10
91.058000
 20
74.133000
 30
0.0
 10
93.587000
 20
74.133000
 30
0.0
 10
93.587000
 20
71.604000
 30
0.0
 10
91.058000
 20
71.604000
 30
0.0
 10
91.058000
 20
66.545000
 30
0.0
 10
93.587000
 20
66.545000
 30
0.0
 10
93.587000
 20
69.075000
 30
0.0
 10
96.116000
 20
69.075000
 30
0.0
 10
96.116000
 20
71.604000
 30
0.0
 10
98.645000
 20
71.604000
 30
0.0
 10
98.645000
 20
74.133000
 30
0.0
 10
101.175000
 20
74.133000
 30
0.0
 10
101.175000
 20
69.075000
 30
0.0
 10
96.116000
 20
69.075000
 30
0.0
 10
96.116000
 20
66.545000
 30
0.0
 10
98.645000
 20
66.545000
 30
0.0
 10
98.645000
 20
61.487000
 30
0.0
 10
96.116000
 20
61.487000
 30
0.0
 10
96.116000
 20
58.958000
 30
0.0
 10
103.704000
 20
58.958000
 30
0.0
 10
103.704000
 20
61.487000
 30
0.0
 10
101.175000
 20
61.487000
 30
0.0
 10
101.175000
 20
64.016000
 30
0.0
 10
113.820000
 20
64.016000
 30
0.0
 10
113.820000
 20
66.545000
 30
0.0
 10
116.349000
 20
66.545000
 30
0.0
 10
116.349000
 20
61.487000
 30
0.0
 10
118.878000
 20
61.487000
 30
0.0
 10
118.878000
 20
64.016000
 30
0.0
 10
121.407000
 20
64.016000
 30
0.0
 10
121.407000
 20
58.958000
 30
0.0
 10
116.349000
 20
58.958000
 30
0.0
 10
116.349000
 20
61.487000
 30
0.0
 10
106.233000
 20
61.487000
 30
0.0
 10
106.233000
 20
58.958000
 30
0.0
 10
108.762000
 20
58.958000
 30
0.0
 10
108.762000
 20
56.429000
 30
0.0
 10
123.936000
 20
56.429000
 30
0.0
  0
LWPOLYLINE
  5
16d
100
AcDbEntity
  8
0
 62
7
100
AcDbPolyline
 90
5
 70
1
 10
63.238000
 20
58.958000
 30
0.0
 10
63.238000
 20
71.604000
 30
0.0
 10
75.883000
 20
71.604000
 30
0.0
 10
75.883000
 20
58.958000
 30
0.0
 10
63.238000
 20
58.958000
 30
0.0
  0
LWPOLYLINE
  5
16e
100
AcDbEntity
  8
0
 62
7
100
AcDbPolyline
 90
5
 70
1
 10
73.354000
 20
61.487000
 30
0.0
 10
73.354000
 20
69.075000
 30
0.0
 10
65.767000
 20
69.075000
 30
0.0
 10
65.767000
 20
61.487000
 30
0.0
 10
73.354000
 20
61.487000
 30
0.0
  0
LWPOLYLINE
  5
16f
100
AcDbEntity
  8
0
 62
7
100
AcDbPolyline
 90
5
 70
1
 10
103.704000
 20
69.075000
 30
0.0
 10
103.704000
 20
76.662000
 30
0.0
 10
111.291000
 20
76.662000
 30
0.0
 10
111.291000
 20
69.075000
 30
0.0
 10
103.704000
 20
69.075000
 30
0.0
  0
LWPOLYLINE
  5
170
100
AcDbEntity
  8
0
 62
7
100
AcDbPolyline
 90
9
 70
1
 10
83.471000
 20
71.604000
 30
0.0
 10
83.471000
 20
74.133000
 30
0.0
 10
86.000000
 20
74.133000
 30
0.0
 10
86.000000
 20
71.604000
 30
0.0
 10
88.529000
 20
71.604000
 30
0.0
 10
88.529000
 20
76.662000
 30
0.0
 10
80.942000
 20
76.662000
 30
0.0
 10
80.942000
 20
71.604000
 30
0.0
 10
83.471000
 20
71.604000
 30
0.0
  0
LWPOLYLINE
  5
171
100
AcDbEntity
  8
0
 62
7
100
AcDbPolyline
 90
5
 70
1
 10
108.762000
 20
71.604000
 30
0.0
 10
108.762000
 20
74.133000
 30
0.0
 10
106.233000
 20
74.133000
 30
0.0
 10
106.233000
 20
71.604000
 30
0.0
 10
108.762000
 20
71.604000
 30
0.0
  0
LWPOLYLINE
  5
172
100
AcDbEntity
  8
0
 62
7
100
AcDbPolyline
 90
7
 70
1
 10
63.238000
 20
76.662000
 30
0.0
 10
63.238000
 20
84.249000
 30
0.0
 10
68.296000
 20
84.249000
 30
0.0
 10
68.296000
 20
86.778000
 30
0.0
 10
60.709000
 20
86.778000
 30
0.0
 10
60.709000
 20
76.662000
 30
0.0
 10
63.238000
 20
76.662000
 30
0.0
  0
LWPOLYLINE
  5
173
100
AcDbEntity
  8
0
 62
7
100
AcDbPolyline
 90
33
 70
1
 10
73.354000
 20
76.662000
 30
0.0
 10
73.354000
 20
79.191000
 30
0.0
 10
75.883000
 20
79.191000
 30
0.0
 10
75.883000
 20
81.720000
 30
0.0
 10
73.354000
 20
81.720000
 30
0.0
 10
73.354000
 20
86.778000
 30
0.0
 10
80.942000
 20
86.778000
 30
0.0
 10
80.942000
 20
79.191000
 30
0.0
 10
83.471000
 20
79.191000
 30
0.0
 10
83.471000
 20
84.249000
 30
0.0
 10
86.000000
 20
84.249000
 30
0.0
 10
86.000000
 20
86.778000
 30
0.0
 10
88.529000
 20
86.778000
 30
0.0
 10
88.529000
 20
89.307000
 30
0.0
 10
83.471000
 20
89.307000
 30
0.0
 10
83.471000
 20
91.837000
 30
0.0
 10
78.413000
 20
91.837000
 30
0.0
 10
78.413000
 20
89.307000
 30
0.0
 10
75.883000
 20
89.307000
 30
0.0
 10
75.883000
 20
91.837000
 30
0.0
 10
70.825000
 20
91.837000
 30
0.0
 10
70.825000
 20
89.307000
 30
0.0
 10
68.296000
 20
89.307000
 30
0.0
 10
68.296000
 20
86.778000
 30
0.0
 10
70.825000
 20
86.778000
 30
0.0
 10
70.825000
 20
84.249000
 30
0.0
 10
68.296000
 20
84.249000
 30
0.0
 10
68.296000
 20
81.720000
 30
0.0
 10
65.767000
 20
81.720000
 30
0.0
 10
65.767000
 20
79.191000
 30
0.0
 10
70.825000
 20
79.191000
 30
0.0
 10
70.825000
 20
76.662000
 30
0.0
 10
73.354000
 20
76.662000
 30
0.0
  0
LWPOLYLINE
  5
174
100
AcDbEntity
  8
0
 62
7
100
AcDbPolyline
 90
5
 70
1
 10
80.942000
 20
76.662000
 30
0.0
 10
80.942000
 20
79.191000
 30
0.0
 10
75.883000
 20
79.191000
 30
0.0
 10
75.883000
 20
76.662000
 30
0.0
 10
80.942000
 20
76.662000
 30
0.0
  0
LWPOLYLINE
  5
175
100
AcDbEntity
  8
0
 62
7
100
AcDbPolyline
 90
7
 70
1
 10
91.058000
 20
76.662000
 30
0.0
 10
91.058000
 20
81.720000
 30
0.0
 10
93.587000
 20
81.720000
 30
0.0
 10
93.587000
 20
84.249000
 30
0.0
 10
88.529000
 20
84.249000
 30
0.0
 10
88.529000
 20
76.662000
 30
0.0
 10
91.058000
 20
76.662000
 30
0.0
  0
LWPOLYLINE
  5
176
100
AcDbEntity
  8
0
 62
7
100
AcDbPolyline
 90
5
 70
1
 10
116.349000
 20
79.191000
 30
0.0
 10
116.349000
 20
86.778000
 30
0.0
 10
113.820000
 20
86.778000
 30
0.0
 10
113.820000
 20
79.191000
 30
0.0
 10
116.349000
 20
79.191000
 30
0.0
  0
LWPOLYLINE
  5
177
100
AcDbEntity
  8
0
 62
7
100
AcDbPolyline
 90
19
 70
1
 10
123.936000
 20
79.191000
 30
0.0
 10
123.936000
 20
84.249000
 30
0.0
 10
121.407000
 20
84.249000
 30
0.0
 10
121.407000
 20
86.778000
 30
0.0
 10
123.936000
 20
86.778000
 30
0.0
 10
123.936000
 20
94.366000
 30
0.0
 10
121.407000
 20
94.366000
 30
0.0
 10
121.407000
 20
99.424000
 30
0.0
 10
118.878000
 20
99.424000
 30
0.0
 10
118.878000
 20
91.837000
 30
0.0
 10
121.407000
 20
91.837000
 30
0.0
 10
121.407000
 20
89.307000
 30
0.0
 10
116.349000
 20
89.307000
 30
0.0
 10
116.349000
 20
86.778000
 30
0.0
 10
118.878000
 20
86.778000
 30
0.0
 10
118.878000
 20
81.720000
 30
0.0
 10
121.407000
 20
81.720000
 30
0.0
 10
121.407000
 20
79.191000
 30
0.0
 10
123.936000
 20
79.191000
 30
0.0
  0
LWPOLYLINE
  5
178
100
AcDbEntity
  8
0
 62
7
100
AcDbPolyline
 90
5
 70
1
 10
78.413000
 20
81.720000
 30
0.0
 10
78.413000
 20
84.249000
 30
0.0
 10
75.883000
 20
84.249000
 30
0.0
 10
75.883000
 20
81.720000
 30
0.0
 10
78.413000
 20
81.720000
 30
0.0
  0
LWPOLYLINE
  5
179
100
AcDbEntity
  8
0
 62
7
100
AcDbPolyline
 90
5
 70
1
 10
103.704000
 20
84.249000
 30
0.0
 10
103.704000
 20
86.778000
 30
0.0
 10
101.175000
 20
86.778000
 30
0.0
 10
101.175000
 20
84.249000
 30
0.0
 10
103.704000
 20
84.249000
 30
0.0
  0
LWPOLYLINE
  5
17a
100
AcDbEntity
  8
0
 62
7
100
AcDbPolyline
 90
31
 70
1
 10
93.587000
 20
86.778000
 30
0.0
 10
93.587000
 20
89.307000
 30
0.0
 10
96.116000
 20
89.307000
 30
0.0
 10
96.116000
 20
91.837000
 30
0.0
 10
98.645000
 20
91.837000
 30
0.0
 10
98.645000
 20
89.307000
 30
0.0
 10
96.116000
 20
89.307000
 30
0.0
 10
96.116000
 20
86.778000
 30
0.0
 10
101.175000
 20
86.778000
 30
0.0
 10
101.175000
 20
89.307000
 30
0.0
 10
103.704000
 20
89.307000
 30
0.0
 10
103.704000
 20
91.837000
 30
0.0
 10
106.233000
 20
91.837000
 30
0.0
 10
106.233000
 20
94.366000
 30
0.0
 10
103.704000
 20
94.366000
 30
0.0
 10
103.704000
 20
96.895000
 30
0.0
 10
106.233000
 20
96.895000
 30
0.0
 10
106.233000
 20
99.424000
 30
0.0
 10
98.645000
 20
99.424000
 30
0.0
 10
98.645000
 20
96.895000
 30
0.0
 10
101.175000
 20
96.895000
 30
0.0
 10
101.175000
 20
94.366000
 30
0.0
 10
96.116000
 20
94.366000
 30
0.0
 10
96.116000
 20
96.895000
 30
0.0
 10
91.058000
 20
96.895000
 30
0.0
 10
91.058000
 20
94.366000
 30
0.0
 10
93.587000
 20
94.366000
 30
0.0
 10
93.587000
 20
91.837000
 30
0.0
 10
91.058000
 20
91.837000
 30
0.0
 10
91.058000
 20
86.778000
 30
0.0
 10
93.587000
 20
86.778000
 30
0.0
  0
LWPOLYLINE
  5
17b
100
AcDbEntity
  8
0
 62
7
100
AcDbPolyline
 90
5
 70
1
 10
113.820000
 20
86.778000
 30
0.0
 10
113.820000
 20
89.307000
 30
0.0
 10
103.704000
 20
89.307000
 30
0.0
 10
103.704000
 20
86.778000
 30
0.0
 10
113.820000
 20
86.778000
 30
0.0
  0
LWPOLYLINE
  5
17c
100
AcDbEntity
  8
0
 62
7
100
AcDbPolyline
 90
13
 70
1
 10
68.296000
 20
89.307000
 30
0.0
 10
68.296000
 20
91.837000
 30
0.0
 10
65.767000
 20
91.837000
 30
0.0
 10
65.767000
 20
94.366000
 30
0.0
 10
73.354000
 20
94.366000
 30
0.0
 10
73.354000
 20
99.424000
 30
0.0
 10
60.709000
 20
99.424000
 30
0.0
 10
60.709000
 20
94.366000
 30
0.0
 10
63.238000
 20
94.366000
 30
0.0
 10
63.238000
 20
91.837000
 30
0.0
 10
60.709000
 20
91.837000
 30
0.0
 10
60.709000
 20
89.307000
 30
0.0
 10
68.296000
 20
89.307000
 30
0.0
  0
LWPOLYLINE
  5
17d
100
AcDbEntity
  8
0
 62
7
100
AcDbPolyline
 90
5
 70
1
 10
78.413000
 20
91.837000
 30
0.0
 10
78.413000
 20
94.366000
 30
0.0
 10
75.883000
 20
94.366000
 30
0.0
 10
75.883000
 20
91.837000
 30
0.0
 10
78.413000
 20
91.837000
 30
0.0
  0
LWPOLYLINE
  5
17e
100
AcDbEntity
  8
0
 62
7
100
AcDbPolyline
 90
5
 70
1
 10
88.529000
 20
91.837000
 30
0.0
 10
88.529000
 20
96.895000
 30
0.0
 10
86.000000
 20
96.895000
 30
0.0
 10
86.000000
 20
91.837000
 30
0.0
 10
88.529000
 20
91.837000
 30
0.0
  0
LWPOLYLINE
  5
17f
100
AcDbEntity
  8
0
 62
7
100
AcDbPolyline
 90
5
 70
1
 10
116.349000
 20
91.837000
 30
0.0
 10
116.349000
 20
94.366000
 30
0.0
 10
111.291000
 20
94.366000
 30
0.0
 10
111.291000
 20
91.837000
 30
0.0
 10
116.349000
 20
91.837000
 30
0.0
  0
LWPOLYLINE
  5
180
100
AcDbEntity
  8
0
 62
7
100
AcDbPolyline
 90
19
 70
1
 10
83.471000
 20
94.366000
 30
0.0
 10
83.471000
 20
96.895000
 30
0.0
 10
86.000000
 20
96.895000
 30
0.0
 10
86.000000
 20
99.424000
 30
0.0
 10
88.529000
 20
99.424000
 30
0.0
 10
88.529000
 20
96.895000
 30
0.0
 10
91.058000
 20
96.895000
 30
0.0
 10
91.058000
 20
101.953000
 30
0.0
 10
88.529000
 20
101.953000
 30
0.0
 10
88.529000
 20
104.482000
 30
0.0
 10
86.000000
 20
104.482000
 30
0.0
 10
86.000000
 20
101.953000
 30
0.0
 10
83.471000
 20
101.953000
 30
0.0
 10
83.471000
 20
99.424000
 30
0.0
 10
75.883000
 20
99.424000
 30
0.0
 10
75.883000
 20
96.895000
 30
0.0
 10
80.942000
 20
96.895000
 30
0.0
 10
80.942000
 20
94.366000
 30
0.0
 10
83.471000
 20
94.366000
 30
0.0
  0
LWPOLYLINE
  5
181
100
AcDbEntity
  8
0
 62
7
100
AcDbPolyline
 90
5
 70
1
 10
111.291000
 20
94.366000
 30
0.0
 10
111.291000
 20
99.424000
 30
0.0
 10
108.762000
 20
99.424000
 30
0.0
 10
108.762000
 20
94.366000
 30
0.0
 10
111.291000
 20
94.366000
 30
0.0
  0
LWPOLYLINE
  5
182
100
AcDbEntity
  8
0
 62
7
100
AcDbPolyline
 90
5
 70
1
 10
116.349000
 20
96.895000
 30
0.0
 10
116.349000
 20
99.424000
 30
0.0
 10
113.820000
 20
99.424000
 30
0.0
 10
113.820000
 20
96.895000
 30
0.0
 10
116.349000
 20
96.895000
 30
0.0
  0
LWPOLYLINE
  5
183
100
AcDbEntity
  8
0
 62
7
100
AcDbPolyline
 90
9
 70
1
 10
98.645000
 20
99.424000
 30
0.0
 10
98.645000
 20
104.482000
 30
0.0
 10
101.175000
 20
104.482000
 30
0.0
 10
101.175000
 20
101.953000
 30
0.0
 10
103.704000
 20
101.953000
 30
0.0
 10
103.704000
 20
107.011000
 30
0.0
 10
96.116000
 20
107.011000
 30
0.0
 10
96.116000
 20
99.424000
 30
0.0
 10
98.645000
 20
99.424000
 30
0.0
  0
LWPOLYLINE
  5
184
100
AcDbEntity
  8
0
 62
7
100
AcDbPolyline
 90
5
 70
1
 10
78.413000
 20
101.953000
 30
0.0
 10
78.413000
 20
119.657000
 30
0.0
 10
60.709000
 20
119.657000
 30
0.0
 10
60.709000
 20
101.953000
 30
0.0
 10
78.413000
 20
101.953000
 30
0.0
  0
LWPOLYLINE
  5
185
100
AcDbEntity
  8
0
 62
7
100
AcDbPolyline
 90
13
 70
1
 10
83.471000
 20
101.953000
 30
0.0
 10
83.471000
 20
104.482000
 30
0.0
 10
86.000000
 20
104.482000
 30
0.0
 10
86.000000
 20
109.540000
 30
0.0
 10
88.529000
 20
109.540000
 30
0.0
 10
88.529000
 20
112.069000
 30
0.0
 10
80.942000
 20
112.069000
 30
0.0
 10
80.942000
 20
109.540000
 30
0.0
 10
83.471000
 20
109.540000
 30
0.0
 10
83.471000
 20
107.011000
 30
0.0
 10
80.942000
 20
107.011000
 30
0.0
 10
80.942000
 20
101.953000
 30
0.0
 10
83.471000
 20
101.953000
 30
0.0
  0
LWPOLYLINE
  5
186
100
AcDbEntity
  8
0
 62
7
100
AcDbPolyline
 90
7
 70
1
 10
93.587000
 20
101.953000
 30
0.0
 10
93.587000
 20
107.011000
 30
0.0
 10
88.529000
 20
107.011000
 30
0.0
 10
88.529000
 20
104.482000
 30
0.0
 10
91.058000
 20
104.482000
 30
0.0
 10
91.058000
 20
101.953000
 30
0.0
 10
93.587000
 20
101.953000
 30
0.0
  0
LWPOLYLINE
  5
187
100
AcDbEntity
  8
0
 62
7
100
AcDbPolyline
 90
5
 70
1
 10
123.936000
 20
101.953000
 30
0.0
 10
123.936000
 20
119.657000
 30
0.0
 10
106.233000
 20
119.657000
 30
0.0
 10
106.233000
 20
101.953000
 30
0.0
 10
123.936000
 20
101.953000
 30
0.0
  0
LWPOLYLINE
  5
188
100
AcDbEntity
  8
0
 62
7
100
AcDbPolyline
 90
5
 70
1
 10
63.238000
 20
104.482000
 30
0.0
 10
63.238000
 20
117.128000
 30
0.0
 10
75.883000
 20
117.128000
 30
0.0
 10
75.883000
 20
104.482000
 30
0.0
 10
63.238000
 20
104.482000
 30
0.0
  0
LWPOLYLINE
  5
189
100
AcDbEntity
  8
0
 62
7
100
AcDbPolyline
 90
5
 70
1
 10
108.762000
 20
104.482000
 30
0.0
 10
108.762000
 20
117.128000
 30
0.0
 10
121.407000
 20
117.128000
 30
0.0
 10
121.407000
 20
104.482000
 30
0.0
 10
108.762000
 20
104.482000
 30
0.0
  0
LWPOLYLINE
  5
18a
100
AcDbEntity
  8
0
 62
7
100
AcDbPolyline
 90
5
 70
1
 10
73.354000
 20
107.011000
 30
0.0
 10
73.354000
 20
114.598000
 30
0.0
 10
65.767000
 20
114.598000
 30
0.0
 10
65.767000
 20
107.011000
 30
0.0
 10
73.354000
 20
107.011000
 30
0.0
  0
LWPOLYLINE
  5
18b
100
AcDbEntity
  8
0
 62
7
100
AcDbPolyline
 90
5
 70
1
 10
118.878000
 20
107.011000
 30
0.0
 10
118.878000
 20
114.598000
 30
0.0
 10
111.291000
 20
114.598000
 30
0.0
 10
111.291000
 20
107.011000
 30
0.0
 10
118.878000
 20
107.011000
 30
0.0
  0
LWPOLYLINE
  5
18c
100
AcDbEntity
  8
0
 62
7
100
AcDbPolyline
 90
7
 70
1
 10
98.645000
 20
109.540000
 30
0.0
 10
98.645000
 20
112.069000
 30
0.0
 10
93.587000
 20
112.069000
 30
0.0
 10
93.587000
 20
114.598000
 30
0.0
 10
91.058000
 20
114.598000
 30
0.0
 10
91.058000
 20
109.540000
 30
0.0
 10
98.645000
 20
109.540000
 30
0.0
  0
LWPOLYLINE
  5
18d
100
AcDbEntity
  8
0
 62
7
100
AcDbPolyline
 90
5
 70
1
 10
103.704000
 20
112.069000
 30
0.0
 10
103.704000
 20
114.598000
 30
0.0
 10
101.175000
 20
114.598000
 30
0.0
 10
101.175000
 20
112.069000
 30
0.0
 10
103.704000
 20
112.069000
 30
0.0
  0
LWPOLYLINE
  5
18e
100
AcDbEntity
  8
0
 62
7
100
AcDbPolyline
 90
5
 70
1
 10
83.471000
 20
114.598000
 30
0.0
 10
83.471000
 20
117.128000
 30
0.0
 10
80.942000
 20
117.128000
 30
0.0
 10
80.942000
 20
114.598000
 30
0.0
 10
83.471000
 20
114.598000
 30
0.0
  0
LWPOLYLINE
  5
18f
100
AcDbEntity
  8
0
 62
7
100
AcDbPolyline
 90
5
 70
1
 10
88.529000
 20
114.598000
 30
0.0
 10
88.529000
 20
119.657000
 30
0.0
 10
86.000000
 20
119.657000
 30
0.0
 10
86.000000
 20
114.598000
 30
0.0
 10
88.529000
 20
114.598000
 30
0.0
  0
LWPOLYLINE
  5
190
100
AcDbEntity
  8
0
 62
7
100
AcDbPolyline
 90
5
 70
1
 10
101.175000
 20
114.598000
 30
0.0
 10
101.175000
 20
117.128000
 30
0.0
 10
96.116000
 20
117.128000
 30
0.0
 10
96.116000
 20
114.598000
 30
0.0
 10
101.175000
 20
114.598000
 30
0.0
  0
LWPOLYLINE
  5
191
100
AcDbEntity
  8
0
 62
7
100
AcDbPolyline
 90
5
 70
1
 10
93.587000
 20
117.128000
 30
0.0
 10
93.587000
 20
119.657000
 30
0.0
 10
91.058000
 20
119.657000
 30
0.0
 10
91.058000
 20
117.128000
 30
0.0
 10
93.587000
 20
117.128000
 30
0.0
  0
LWPOLYLINE
  5
192
100
AcDbEntity
  8
0
 62
7
100
AcDbPolyline
 90
5
 70
1
 10
103.704000
 20
117.128000
 30
0.0
 10
103.704000
 20
119.657000
 30
0.0
 10
101.175000
 20
119.657000
 30
0.0
 10
101.175000
 20
117.128000
 30
0.0
 10
103.704000
 20
117.128000
 30
0.0
  0
ENDSEC
  0
SECTION
  2
OBJECTS
  0
DICTIONARY
  5
C
330
0
100
AcDbDictionary
  3
ACAD_GROUP
350
D
  3
ACAD_MLINESTYLE
350
17
  0
DICTIONARY
  5
D
330
C
100
AcDbDictionary
  0
DICTIONARY
  5
1A
330
C
100
AcDbDictionary
  0
DICTIONARY
  5
17
330
C
100
AcDbDictionary
  3
STANDARD
350
18
  0
DICTIONARY
  5
19
330
C
100
AcDbDictionary
  0
ENDSEC
  0
EOF
