<?xml version="1.0" encoding="UTF-8" standalone="no"?>
<!--Generator: Xara Designer (www.xara.com), SVG filter version: 6.1.0.16-->

<svg
   stroke-width="0.501"
   stroke-linejoin="bevel"
   fill-rule="evenodd"
   version="1.1"
   overflow="visible"
   width="216.918pt"
   height="187.051pt"
   viewBox="0 0 216.918 187.051"
   id="svg452"
   sodipodi:docname="Tshirt_hinten_Nibbler.svg"
   inkscape:version="1.1 (c68e22c387, 2021-05-23)"
   xmlns:inkscape="http://www.inkscape.org/namespaces/inkscape"
   xmlns:sodipodi="http://sodipodi.sourceforge.net/DTD/sodipodi-0.dtd"
   xmlns="http://www.w3.org/2000/svg"
   xmlns:svg="http://www.w3.org/2000/svg">
  <sodipodi:namedview
     id="namedview454"
     pagecolor="#ffffff"
     bordercolor="#666666"
     borderopacity="1.0"
     inkscape:pageshadow="2"
     inkscape:pageopacity="0"
     inkscape:pagecheckerboard="true"
     inkscape:document-units="pt"
     showgrid="false"
     inkscape:zoom="3.1836238"
     inkscape:cx="129.25522"
     inkscape:cy="118.10441"
     inkscape:window-width="1920"
     inkscape:window-height="1002"
     inkscape:window-x="-8"
     inkscape:window-y="-8"
     inkscape:window-maximized="1"
     inkscape:current-layer="svg452" />
  <defs
     id="defs311" />
  <g
     id="Document"
     fill="none"
     stroke="black"
     font-family="Times New Roman"
     font-size="16"
     transform="scale(1 -1)">
    <g
       id="Spread"
       transform="translate(0 -187.051)">
      <g
         id="Layer 1">
        <g
           id="Group">
          <g
             id="Group_1"
             fill-rule="evenodd"
             stroke-linejoin="miter"
             stroke="none"
             stroke-width="0.632"
             fill="#ffffff"
             stroke-miterlimit="79.8403193612775">
            <path
               d="M 142.904,56.429 L 130.259,56.429 L 130.259,62.672 L 142.904,62.672 L 142.904,56.429 Z"
               marker-start="none"
               marker-end="none"
               id="path313" />
            <path
               d="M 142.904,64.57 L 130.259,64.57 L 130.259,70.813 L 142.904,70.813 L 142.904,64.57 Z"
               marker-start="none"
               marker-end="none"
               id="path315" />
            <path
               d="M 142.904,72.71 L 130.259,72.71 L 130.259,78.953 L 142.904,78.953 L 142.904,72.71 Z"
               marker-start="none"
               marker-end="none"
               id="path317" />
            <path
               d="M 142.904,80.851 L 130.259,80.851 L 130.259,87.094 L 142.904,87.094 L 142.904,80.851 Z"
               marker-start="none"
               marker-end="none"
               id="path319" />
            <path
               d="M 142.904,88.991 L 130.259,88.991 L 130.259,95.234 L 142.904,95.234 L 142.904,88.991 Z"
               marker-start="none"
               marker-end="none"
               id="path321" />
            <path
               d="M 142.904,97.132 L 130.259,97.132 L 130.259,103.375 L 142.904,103.375 L 142.904,97.132 Z"
               marker-start="none"
               marker-end="none"
               id="path323" />
            <path
               d="M 142.904,105.272 L 130.259,105.272 L 130.259,111.515 L 142.904,111.515 L 142.904,105.272 Z"
               marker-start="none"
               marker-end="none"
               id="path325" />
            <path
               d="M 142.904,113.412 L 130.259,113.412 L 130.259,119.655 L 142.904,119.655 L 142.904,113.412 Z"
               marker-start="none"
               marker-end="none"
               id="path327" />
          </g>
          <g
             id="Group_2"
             fill-rule="evenodd"
             stroke-linejoin="miter"
             stroke="none"
             stroke-width="0.632"
             fill="#ffffff"
             stroke-miterlimit="79.8403193612775">
            <path
               d="M 54.385,56.429 L 41.74,56.429 L 41.74,62.672 L 54.385,62.672 L 54.385,56.429 Z"
               marker-start="none"
               marker-end="none"
               id="path330" />
            <path
               d="M 54.385,64.57 L 41.74,64.57 L 41.74,70.813 L 54.385,70.813 L 54.385,64.57 Z"
               marker-start="none"
               marker-end="none"
               id="path332" />
            <path
               d="M 54.385,72.71 L 41.74,72.71 L 41.74,78.953 L 54.385,78.953 L 54.385,72.71 Z"
               marker-start="none"
               marker-end="none"
               id="path334" />
            <path
               d="M 54.385,80.851 L 41.74,80.851 L 41.74,87.094 L 54.385,87.094 L 54.385,80.851 Z"
               marker-start="none"
               marker-end="none"
               id="path336" />
            <path
               d="M 54.385,88.991 L 41.74,88.991 L 41.74,95.234 L 54.385,95.234 L 54.385,88.991 Z"
               marker-start="none"
               marker-end="none"
               id="path338" />
            <path
               d="M 54.385,97.132 L 41.74,97.132 L 41.74,103.375 L 54.385,103.375 L 54.385,97.132 Z"
               marker-start="none"
               marker-end="none"
               id="path340" />
            <path
               d="M 54.385,105.272 L 41.74,105.272 L 41.74,111.515 L 54.385,111.515 L 54.385,105.272 Z"
               marker-start="none"
               marker-end="none"
               id="path342" />
            <path
               d="M 54.385,113.412 L 41.74,113.412 L 41.74,119.655 L 54.385,119.655 L 54.385,113.412 Z"
               marker-start="none"
               marker-end="none"
               id="path344" />
          </g>
          <g
             id="Group_3"
             fill-rule="evenodd"
             stroke-linejoin="miter"
             stroke="none"
             stroke-width="0.632"
             fill="#ffffff"
             stroke-miterlimit="79.8403193612775">
            <path
               d="M 123.936,138.624 L 123.936,125.979 L 117.693,125.979 L 117.693,138.624 L 123.936,138.624 Z"
               marker-start="none"
               marker-end="none"
               id="path347" />
            <path
               d="M 115.796,138.624 L 115.796,125.979 L 109.553,125.979 L 109.553,138.624 L 115.796,138.624 Z"
               marker-start="none"
               marker-end="none"
               id="path349" />
            <path
               d="M 107.655,138.624 L 107.655,125.979 L 101.412,125.979 L 101.412,138.624 L 107.655,138.624 Z"
               marker-start="none"
               marker-end="none"
               id="path351" />
            <path
               d="M 99.515,138.624 L 99.515,125.979 L 93.272,125.979 L 93.272,138.624 L 99.515,138.624 Z"
               marker-start="none"
               marker-end="none"
               id="path353" />
            <path
               d="M 91.374,138.624 L 91.374,125.979 L 85.131,125.979 L 85.131,138.624 L 91.374,138.624 Z"
               marker-start="none"
               marker-end="none"
               id="path355" />
            <path
               d="M 83.234,138.624 L 83.234,125.979 L 76.991,125.979 L 76.991,138.624 L 83.234,138.624 Z"
               marker-start="none"
               marker-end="none"
               id="path357" />
            <path
               d="M 75.094,138.624 L 75.094,125.979 L 68.851,125.979 L 68.851,138.624 L 75.094,138.624 Z"
               marker-start="none"
               marker-end="none"
               id="path359" />
            <path
               d="M 66.953,138.624 L 66.953,125.979 L 60.71,125.979 L 60.71,138.624 L 66.953,138.624 Z"
               marker-start="none"
               marker-end="none"
               id="path361" />
          </g>
          <g
             id="Group_4"
             fill-rule="evenodd"
             stroke-linejoin="miter"
             stroke="none"
             stroke-width="0.632"
             fill="#ffffff"
             stroke-miterlimit="79.8403193612775">
            <path
               d="M 123.936,50.106 L 123.936,37.461 L 117.693,37.461 L 117.693,50.106 L 123.936,50.106 Z"
               marker-start="none"
               marker-end="none"
               id="path364" />
            <path
               d="M 115.796,50.106 L 115.796,37.461 L 109.553,37.461 L 109.553,50.106 L 115.796,50.106 Z"
               marker-start="none"
               marker-end="none"
               id="path366" />
            <path
               d="M 107.655,50.106 L 107.655,37.461 L 101.412,37.461 L 101.412,50.106 L 107.655,50.106 Z"
               marker-start="none"
               marker-end="none"
               id="path368" />
            <path
               d="M 99.515,50.106 L 99.515,37.461 L 93.272,37.461 L 93.272,50.106 L 99.515,50.106 Z"
               marker-start="none"
               marker-end="none"
               id="path370" />
            <path
               d="M 91.374,50.106 L 91.374,37.461 L 85.131,37.461 L 85.131,50.106 L 91.374,50.106 Z"
               marker-start="none"
               marker-end="none"
               id="path372" />
            <path
               d="M 83.234,50.106 L 83.234,37.461 L 76.991,37.461 L 76.991,50.106 L 83.234,50.106 Z"
               marker-start="none"
               marker-end="none"
               id="path374" />
            <path
               d="M 75.094,50.106 L 75.094,37.461 L 68.851,37.461 L 68.851,50.106 L 75.094,50.106 Z"
               marker-start="none"
               marker-end="none"
               id="path376" />
            <path
               d="M 66.953,50.106 L 66.953,37.461 L 60.71,37.461 L 60.71,50.106 L 66.953,50.106 Z"
               marker-start="none"
               marker-end="none"
               id="path378" />
          </g>
          <path
             d="M 18.054,84.392 L 1.091,84.392 L 1.091,97.501 L 18.054,97.501 L 18.054,84.392 Z"
             stroke="#ffffff"
             fill="#ffffff"
             stroke-width="2.182"
             stroke-linejoin="round"
             marker-start="none"
             marker-end="none"
             id="path381" />
          <path
             d="M 18.054,60.465 L 1.091,60.465 L 1.091,73.574 L 18.054,73.574 L 18.054,60.465 Z"
             stroke="#ffffff"
             fill="#ffffff"
             stroke-width="2.182"
             stroke-linejoin="round"
             marker-start="none"
             marker-end="none"
             id="path383" />
          <path
             d="M 179.028,86.517 L 179.028,103.48 L 192.137,103.48 L 192.137,86.517 L 179.028,86.517 Z"
             stroke="#ffffff"
             fill="#ffffff"
             stroke-width="2.182"
             stroke-linejoin="round"
             marker-start="none"
             marker-end="none"
             id="path385" />
          <path
             d="M 179.028,65.02 L 179.028,81.983 L 192.137,81.983 L 192.137,65.02 L 179.028,65.02 Z"
             stroke="#ffffff"
             fill="#ffffff"
             stroke-width="2.182"
             stroke-linejoin="round"
             marker-start="none"
             marker-end="none"
             id="path387" />
          <path
             d="M 202.718,86.293 L 202.718,103.256 L 215.827,103.256 L 215.827,86.293 L 202.718,86.293 Z"
             stroke="#ffffff"
             fill="#ffffff"
             stroke-width="2.182"
             stroke-linejoin="round"
             marker-start="none"
             marker-end="none"
             id="path389" />
          <path
             d="M 202.718,64.796 L 202.718,81.759 L 215.827,81.759 L 215.827,64.796 L 202.718,64.796 Z"
             stroke="#ffffff"
             fill="#ffffff"
             stroke-width="2.182"
             stroke-linejoin="round"
             marker-start="none"
             marker-end="none"
             id="path391" />
          <path
             d="M 9.089,91.885 L 9.722,91.885 L 9.722,101.367 L 15.796,108.168 L 51.274,108.168 L 51.274,108.8 L 15.534,108.8 L 9.089,101.629 Z"
             stroke="#ffffff"
             fill="#ffffff"
             stroke-width="3.161"
             stroke-linejoin="round"
             marker-start="none"
             marker-end="none"
             id="path393" />
          <path
             d="M 14.995,67.573 L 50.473,67.573 L 50.473,66.941 L 14.733,66.941 C 10.845,68.423 7.552,66.431 14.995,67.573 Z"
             stroke="#ffffff"
             fill="#ffffff"
             stroke-width="3.161"
             stroke-linejoin="round"
             marker-start="none"
             marker-end="none"
             id="path395" />
          <path
             d="M 31.397,90.477 L 32.029,90.477 L 32.029,90.496 L 38.104,83.695 L 51.768,83.695 L 51.768,83.063 L 37.842,83.063 L 31.397,90.234 Z"
             stroke="#ffffff"
             fill="#ffffff"
             stroke-width="3.161"
             stroke-linejoin="round"
             marker-start="none"
             marker-end="none"
             id="path397" />
          <path
             d="M 10.133,89.986 L 31.751,89.986 L 31.751,90.618 L 9.871,90.618 C 12.801,89.248 12.526,89.228 10.133,89.986 Z"
             stroke="#ffffff"
             fill="#ffffff"
             stroke-width="3.161"
             stroke-linejoin="round"
             marker-start="none"
             marker-end="none"
             id="path399" />
          <path
             d="M 190.077,114.859 L 189.445,114.859 L 174.745,115.019 L 161.557,100.947 L 131.928,100.472 L 131.928,99.84 L 161.819,100.314 L 175.377,114.757 Z"
             stroke="#ffffff"
             fill="#ffffff"
             stroke-width="3.161"
             stroke-linejoin="round"
             marker-start="none"
             marker-end="none"
             id="path401" />
          <path
             d="M 185.473,76.57 L 135.243,76.57 L 135.243,75.938 L 185.734,75.938 C 182.179,76.216 181.426,75.818 185.473,76.57 Z"
             stroke="#ffffff"
             fill="#ffffff"
             stroke-width="3.161"
             stroke-linejoin="round"
             marker-start="none"
             marker-end="none"
             id="path403" />
          <path
             d="M 185.731,94.762 L 185.099,94.762 L 172.73,95.119 L 162.27,84.169 L 136.276,84.169 L 136.276,83.537 L 162.531,83.537 L 173.363,94.858 Z"
             stroke="#ffffff"
             fill="#ffffff"
             stroke-width="3.161"
             stroke-linejoin="round"
             marker-start="none"
             marker-end="none"
             id="path405" />
          <path
             d="M 190.315,114.193 L 197.195,107.171 L 197.276,53.979 L 197.908,53.979 L 197.827,107.432 L 190.577,114.826 Z"
             stroke="#ffffff"
             fill="#ffffff"
             stroke-width="3.161"
             stroke-linejoin="round"
             marker-start="none"
             marker-end="none"
             id="path407" />
          <path
             d="M 137.092,149.187 L 137.092,148.554 L 127.61,148.554 L 120.809,142.48 L 120.809,131.266 L 120.177,131.266 L 120.177,142.742 L 127.348,149.187 Z"
             stroke="#ffffff"
             fill="#ffffff"
             stroke-width="3.161"
             stroke-linejoin="round"
             marker-start="none"
             marker-end="none"
             id="path409" />
          <path
             d="M 72.813,163.54 L 72.813,162.907 L 72.794,151.283 L 79.595,145.209 L 79.595,133.994 L 80.227,133.994 L 80.227,145.471 L 73.056,151.915 Z"
             stroke="#ffffff"
             fill="#ffffff"
             stroke-width="3.161"
             stroke-linejoin="round"
             marker-start="none"
             marker-end="none"
             id="path411" />
          <path
             d="M 112.726,171.378 L 112.726,170.746 L 103.243,170.746 L 96.443,164.671 L 96.443,129.193 L 95.81,129.193 L 95.81,164.933 L 102.982,171.378 Z"
             stroke="#ffffff"
             fill="#ffffff"
             stroke-width="3.161"
             stroke-linejoin="round"
             marker-start="none"
             marker-end="none"
             id="path413" />
          <path
             d="M 111.478,155.736 L 111.478,155.104 L 111.496,147.075 L 104.696,141.001 L 104.696,129.787 L 104.063,129.787 L 104.063,141.263 L 111.235,147.708 Z"
             stroke="#ffffff"
             fill="#ffffff"
             stroke-width="3.161"
             stroke-linejoin="round"
             marker-start="none"
             marker-end="none"
             id="path415" />
          <path
             d="M 88.27,129.513 L 88.27,179.743 L 87.637,179.743 L 87.637,129.252 C 87.916,132.807 87.518,133.56 88.27,129.513 Z"
             stroke="#ffffff"
             fill="#ffffff"
             stroke-width="3.161"
             stroke-linejoin="round"
             marker-start="none"
             marker-end="none"
             id="path417" />
          <path
             d="M 129.233,3.17 L 129.233,3.802 L 119.75,3.802 L 112.95,9.876 L 112.95,45.354 L 112.317,45.354 L 112.317,9.615 L 119.489,3.17 Z"
             stroke="#ffffff"
             fill="#ffffff"
             stroke-width="3.161"
             stroke-linejoin="round"
             marker-start="none"
             marker-end="none"
             id="path419" />
          <path
             d="M 55.255,3.17 L 55.255,3.802 L 64.737,3.802 L 71.537,9.876 L 71.537,45.354 L 72.17,45.354 L 72.17,9.615 L 64.998,3.17 Z"
             stroke="#ffffff"
             fill="#ffffff"
             stroke-width="3.161"
             stroke-linejoin="round"
             marker-start="none"
             marker-end="none"
             id="path421" />
          <path
             d="M 47.143,148.913 L 47.143,148.28 L 56.626,148.28 L 63.426,142.206 L 63.426,130.992 L 64.059,130.992 L 64.059,142.468 L 56.887,148.913 Z"
             stroke="#ffffff"
             fill="#ffffff"
             stroke-width="3.161"
             stroke-linejoin="round"
             marker-start="none"
             marker-end="none"
             id="path423" />
          <path
             d="M 190.077,45.244 L 189.445,45.244 L 174.745,45.084 L 161.557,59.156 L 131.928,59.631 L 131.928,60.263 L 161.819,59.789 L 175.377,45.346 Z"
             stroke="#ffffff"
             fill="#ffffff"
             stroke-width="3.161"
             stroke-linejoin="round"
             marker-start="none"
             marker-end="none"
             id="path425" />
          <path
             d="M 190.315,46.209 L 197.195,53.231 L 197.276,106.423 L 197.908,106.423 L 197.827,52.97 L 190.577,45.576 Z"
             stroke="#ffffff"
             fill="#ffffff"
             stroke-width="3.161"
             stroke-linejoin="round"
             marker-start="none"
             marker-end="none"
             id="path427" />
          <path
             d="M 143.576,148.867 C 143.576,150.433 142.304,151.705 140.738,151.705 C 139.172,151.705 137.9,150.433 137.9,148.867 C 137.9,147.301 139.172,146.029 140.738,146.029 C 142.304,146.029 143.576,147.301 143.576,148.867 Z"
             stroke="#ffffff"
             stroke-width="1.909"
             stroke-linejoin="round"
             marker-start="none"
             marker-end="none"
             id="path429" />
          <path
             d="M 114.287,159.253 C 114.287,160.819 113.015,162.091 111.449,162.091 C 109.883,162.091 108.611,160.819 108.611,159.253 C 108.611,157.687 109.883,156.415 111.449,156.415 C 113.015,156.415 114.287,157.687 114.287,159.253 Z"
             stroke="#ffffff"
             stroke-width="1.909"
             stroke-linejoin="round"
             marker-start="none"
             marker-end="none"
             id="path431" />
          <path
             d="M 119.069,170.753 C 119.069,172.319 117.797,173.591 116.231,173.591 C 114.665,173.591 113.393,172.319 113.393,170.753 C 113.393,169.187 114.665,167.915 116.231,167.915 C 117.797,167.915 119.069,169.187 119.069,170.753 Z"
             stroke="#ffffff"
             stroke-width="1.909"
             stroke-linejoin="round"
             marker-start="none"
             marker-end="none"
             id="path433" />
          <path
             d="M 90.787,183.258 C 90.787,184.824 89.515,186.096 87.949,186.096 C 86.383,186.096 85.111,184.824 85.111,183.258 C 85.111,181.692 86.383,180.42 87.949,180.42 C 89.515,180.42 90.787,181.692 90.787,183.258 Z"
             stroke="#ffffff"
             stroke-width="1.909"
             stroke-linejoin="round"
             marker-start="none"
             marker-end="none"
             id="path435" />
          <path
             d="M 75.642,167.219 C 75.642,168.785 74.37,170.057 72.804,170.057 C 71.238,170.057 69.966,168.785 69.966,167.219 C 69.966,165.653 71.238,164.381 72.804,164.381 C 74.37,164.381 75.642,165.653 75.642,167.219 Z"
             stroke="#ffffff"
             stroke-width="1.909"
             stroke-linejoin="round"
             marker-start="none"
             marker-end="none"
             id="path437" />
          <path
             d="M 46.47,148.833 C 46.47,150.399 45.198,151.671 43.632,151.671 C 42.066,151.671 40.794,150.399 40.794,148.833 C 40.794,147.267 42.066,145.995 43.632,145.995 C 45.198,145.995 46.47,147.267 46.47,148.833 Z"
             stroke="#ffffff"
             stroke-width="1.909"
             stroke-linejoin="round"
             marker-start="none"
             marker-end="none"
             id="path439" />
          <path
             d="M 135.626,3.792 C 135.626,5.358 134.354,6.63 132.788,6.63 C 131.222,6.63 129.95,5.358 129.95,3.792 C 129.95,2.226 131.222,0.954 132.788,0.954 C 134.354,0.954 135.626,2.226 135.626,3.792 Z"
             stroke="#ffffff"
             stroke-width="1.909"
             stroke-linejoin="round"
             marker-start="none"
             marker-end="none"
             id="path441" />
          <path
             d="M 54.537,3.792 C 54.537,5.358 53.265,6.63 51.699,6.63 C 50.133,6.63 48.861,5.358 48.861,3.792 C 48.861,2.226 50.133,0.954 51.699,0.954 C 53.265,0.954 54.537,2.226 54.537,3.792 Z"
             stroke="#ffffff"
             stroke-width="1.909"
             stroke-linejoin="round"
             marker-start="none"
             marker-end="none"
             id="path443" />
          <g
             id="Group_5"
             fill="#ffffff"
             fill-rule="evenodd"
             stroke-linejoin="miter"
             stroke="none"
             stroke-width="0.632"
             stroke-miterlimit="79.8403193612775">
            <path
               d="M 57.548,53.268 L 57.548,122.817 L 127.097,122.817 L 127.097,53.268 L 57.548,53.268 Z M 78.413,56.429 L 78.413,74.133 L 60.709,74.133 L 60.709,56.429 L 78.413,56.429 Z M 83.471,56.429 L 83.471,58.958 L 86,58.958 L 86,64.016 L 83.471,64.016 L 83.471,66.545 L 86,66.545 L 86,64.016 L 88.529,64.016 L 88.529,69.075 L 86,69.075 L 86,71.604 L 83.471,71.604 L 83.471,69.075 L 80.942,69.075 L 80.942,56.429 L 83.471,56.429 Z M 91.058,56.429 L 91.058,61.487 L 93.587,61.487 L 93.587,64.016 L 88.529,64.016 L 88.529,58.958 L 86,58.958 L 86,56.429 L 91.058,56.429 Z M 123.936,56.429 L 123.936,69.075 L 121.407,69.075 L 121.407,66.545 L 118.878,66.545 L 118.878,69.075 L 116.349,69.075 L 116.349,71.604 L 118.878,71.604 L 118.878,69.075 L 121.407,69.075 L 121.407,71.604 L 123.936,71.604 L 123.936,74.133 L 118.878,74.133 L 118.878,79.191 L 116.349,79.191 L 116.349,76.662 L 113.82,76.662 L 113.82,79.191 L 111.291,79.191 L 111.291,81.72 L 101.175,81.72 L 101.175,84.249 L 98.645,84.249 L 98.645,81.72 L 96.116,81.72 L 96.116,79.191 L 101.175,79.191 L 101.175,76.662 L 91.058,76.662 L 91.058,74.133 L 93.587,74.133 L 93.587,71.604 L 91.058,71.604 L 91.058,66.545 L 93.587,66.545 L 93.587,69.075 L 96.116,69.075 L 96.116,71.604 L 98.645,71.604 L 98.645,74.133 L 101.175,74.133 L 101.175,69.075 L 96.116,69.075 L 96.116,66.545 L 98.645,66.545 L 98.645,61.487 L 96.116,61.487 L 96.116,58.958 L 103.704,58.958 L 103.704,61.487 L 101.175,61.487 L 101.175,64.016 L 113.82,64.016 L 113.82,66.545 L 116.349,66.545 L 116.349,61.487 L 118.878,61.487 L 118.878,64.016 L 121.407,64.016 L 121.407,58.958 L 116.349,58.958 L 116.349,61.487 L 106.233,61.487 L 106.233,58.958 L 108.762,58.958 L 108.762,56.429 L 123.936,56.429 Z M 63.238,58.958 L 63.238,71.604 L 75.883,71.604 L 75.883,58.958 L 63.238,58.958 Z M 73.354,61.487 L 73.354,69.075 L 65.767,69.075 L 65.767,61.487 L 73.354,61.487 Z M 103.704,69.075 L 103.704,76.662 L 111.291,76.662 L 111.291,69.075 L 103.704,69.075 Z M 83.471,71.604 L 83.471,74.133 L 86,74.133 L 86,71.604 L 88.529,71.604 L 88.529,76.662 L 80.942,76.662 L 80.942,71.604 L 83.471,71.604 Z M 108.762,71.604 L 108.762,74.133 L 106.233,74.133 L 106.233,71.604 L 108.762,71.604 Z M 63.238,76.662 L 63.238,84.249 L 68.296,84.249 L 68.296,86.778 L 60.709,86.778 L 60.709,76.662 L 63.238,76.662 Z M 73.354,76.662 L 73.354,79.191 L 75.883,79.191 L 75.883,81.72 L 73.354,81.72 L 73.354,86.778 L 80.942,86.778 L 80.942,79.191 L 83.471,79.191 L 83.471,84.249 L 86,84.249 L 86,86.778 L 88.529,86.778 L 88.529,89.307 L 83.471,89.307 L 83.471,91.837 L 78.413,91.837 L 78.413,89.307 L 75.883,89.307 L 75.883,91.837 L 70.825,91.837 L 70.825,89.307 L 68.296,89.307 L 68.296,86.778 L 70.825,86.778 L 70.825,84.249 L 68.296,84.249 L 68.296,81.72 L 65.767,81.72 L 65.767,79.191 L 70.825,79.191 L 70.825,76.662 L 73.354,76.662 Z M 80.942,76.662 L 80.942,79.191 L 75.883,79.191 L 75.883,76.662 L 80.942,76.662 Z M 91.058,76.662 L 91.058,81.72 L 93.587,81.72 L 93.587,84.249 L 88.529,84.249 L 88.529,76.662 L 91.058,76.662 Z M 116.349,79.191 L 116.349,86.778 L 113.82,86.778 L 113.82,79.191 L 116.349,79.191 Z M 123.936,79.191 L 123.936,84.249 L 121.407,84.249 L 121.407,86.778 L 123.936,86.778 L 123.936,94.366 L 121.407,94.366 L 121.407,99.424 L 118.878,99.424 L 118.878,91.837 L 121.407,91.837 L 121.407,89.307 L 116.349,89.307 L 116.349,86.778 L 118.878,86.778 L 118.878,81.72 L 121.407,81.72 L 121.407,79.191 L 123.936,79.191 Z M 78.413,81.72 L 78.413,84.249 L 75.883,84.249 L 75.883,81.72 L 78.413,81.72 Z M 103.704,84.249 L 103.704,86.778 L 101.175,86.778 L 101.175,84.249 L 103.704,84.249 Z M 93.587,86.778 L 93.587,89.307 L 96.116,89.307 L 96.116,91.837 L 98.645,91.837 L 98.645,89.307 L 96.116,89.307 L 96.116,86.778 L 101.175,86.778 L 101.175,89.307 L 103.704,89.307 L 103.704,91.837 L 106.233,91.837 L 106.233,94.366 L 103.704,94.366 L 103.704,96.895 L 106.233,96.895 L 106.233,99.424 L 98.645,99.424 L 98.645,96.895 L 101.175,96.895 L 101.175,94.366 L 96.116,94.366 L 96.116,96.895 L 91.058,96.895 L 91.058,94.366 L 93.587,94.366 L 93.587,91.837 L 91.058,91.837 L 91.058,86.778 L 93.587,86.778 Z M 113.82,86.778 L 113.82,89.307 L 103.704,89.307 L 103.704,86.778 L 113.82,86.778 Z M 68.296,89.307 L 68.296,91.837 L 65.767,91.837 L 65.767,94.366 L 73.354,94.366 L 73.354,99.424 L 60.709,99.424 L 60.709,94.366 L 63.238,94.366 L 63.238,91.837 L 60.709,91.837 L 60.709,89.307 L 68.296,89.307 Z M 78.413,91.837 L 78.413,94.366 L 75.883,94.366 L 75.883,91.837 L 78.413,91.837 Z M 88.529,91.837 L 88.529,96.895 L 86,96.895 L 86,91.837 L 88.529,91.837 Z M 116.349,91.837 L 116.349,94.366 L 111.291,94.366 L 111.291,91.837 L 116.349,91.837 Z M 83.471,94.366 L 83.471,96.895 L 86,96.895 L 86,99.424 L 88.529,99.424 L 88.529,96.895 L 91.058,96.895 L 91.058,101.953 L 88.529,101.953 L 88.529,104.482 L 86,104.482 L 86,101.953 L 83.471,101.953 L 83.471,99.424 L 75.883,99.424 L 75.883,96.895 L 80.942,96.895 L 80.942,94.366 L 83.471,94.366 Z M 111.291,94.366 L 111.291,99.424 L 108.762,99.424 L 108.762,94.366 L 111.291,94.366 Z M 116.349,96.895 L 116.349,99.424 L 113.82,99.424 L 113.82,96.895 L 116.349,96.895 Z M 98.645,99.424 L 98.645,104.482 L 101.175,104.482 L 101.175,101.953 L 103.704,101.953 L 103.704,107.011 L 96.116,107.011 L 96.116,99.424 L 98.645,99.424 Z M 78.413,101.953 L 78.413,119.657 L 60.709,119.657 L 60.709,101.953 L 78.413,101.953 Z M 83.471,101.953 L 83.471,104.482 L 86,104.482 L 86,109.54 L 88.529,109.54 L 88.529,112.069 L 80.942,112.069 L 80.942,109.54 L 83.471,109.54 L 83.471,107.011 L 80.942,107.011 L 80.942,101.953 L 83.471,101.953 Z M 93.587,101.953 L 93.587,107.011 L 88.529,107.011 L 88.529,104.482 L 91.058,104.482 L 91.058,101.953 L 93.587,101.953 Z M 123.936,101.953 L 123.936,119.657 L 106.233,119.657 L 106.233,101.953 L 123.936,101.953 Z M 63.238,104.482 L 63.238,117.128 L 75.883,117.128 L 75.883,104.482 L 63.238,104.482 Z M 108.762,104.482 L 108.762,117.128 L 121.407,117.128 L 121.407,104.482 L 108.762,104.482 Z M 73.354,107.011 L 73.354,114.598 L 65.767,114.598 L 65.767,107.011 L 73.354,107.011 Z M 118.878,107.011 L 118.878,114.598 L 111.291,114.598 L 111.291,107.011 L 118.878,107.011 Z M 98.645,109.54 L 98.645,112.069 L 93.587,112.069 L 93.587,114.598 L 91.058,114.598 L 91.058,109.54 L 98.645,109.54 Z M 103.704,112.069 L 103.704,114.598 L 101.175,114.598 L 101.175,112.069 L 103.704,112.069 Z M 83.471,114.598 L 83.471,117.128 L 80.942,117.128 L 80.942,114.598 L 83.471,114.598 Z M 88.529,114.598 L 88.529,119.657 L 86,119.657 L 86,114.598 L 88.529,114.598 Z M 101.175,114.598 L 101.175,117.128 L 96.116,117.128 L 96.116,114.598 L 101.175,114.598 Z M 93.587,117.128 L 93.587,119.657 L 91.058,119.657 L 91.058,117.128 L 93.587,117.128 Z M 103.704,117.128 L 103.704,119.657 L 101.175,119.657 L 101.175,117.128 L 103.704,117.128 Z"
               marker-start="none"
               marker-end="none"
               id="path445" />
          </g>
        </g>
      </g>
    </g>
  </g>
</svg>
