M48
; DRILL file {KiCad (5.1.10)-1} date 12/14/21 17:37:55
; FORMAT={-:-/ absolute / inch / decimal}
; #@! TF.CreationDate,2021-12-14T17:37:55+01:00
; #@! TF.GenerationSoftware,Kicad,Pcbnew,(5.1.10)-1
; #@! TF.FileFunction,Plated,1,2,PTH
FMAT,2
INCH
T1C0.0157
T2C0.0276
T3C0.0394
T4C0.0528
%
G90
G05
T1
X5.7Y-5.475
X5.7561Y-4.6805
X5.7561Y-4.712
X5.7561Y-4.7435
X5.7561Y-4.8065
X5.7561Y-4.838
X5.7561Y-4.8695
X5.775Y-4.1
X5.7837Y-4.6648
X5.7837Y-4.6963
X5.7837Y-4.7278
X5.7837Y-4.7593
X5.7837Y-4.7907
X5.7837Y-4.8222
X5.7837Y-4.8537
X5.7837Y-4.8852
X5.875Y-5.65
X5.89Y-3.9
X5.9404Y-4.25
X5.95Y-5.275
X5.95Y-5.325
X5.95Y-5.375
X5.975Y-4.35
X5.975Y-4.45
X6.0Y-5.275
X6.0Y-5.325
X6.0Y-5.375
X6.075Y-5.2
X6.125Y-4.7
X6.15Y-4.325
X6.2Y-4.0
X6.2Y-4.05
X6.2Y-4.1
X6.2Y-4.15
X6.325Y-5.2
X6.4Y-3.675
X6.525Y-3.775
X6.575Y-5.55
X6.6Y-4.725
X6.625Y-3.75
X6.7Y-4.2
X6.7894Y-4.4
X6.8Y-5.425
X6.925Y-4.825
X7.025Y-4.625
T2
X6.075Y-5.025
X6.375Y-4.4
X7.025Y-3.625
X7.025Y-3.725
X7.025Y-3.825
X7.025Y-3.925
X7.025Y-4.025
X7.025Y-4.125
X7.025Y-4.225
X7.025Y-4.325
X7.025Y-4.425
T3
X5.6Y-5.1
X5.65Y-3.65
X5.65Y-3.75
X5.65Y-3.85
X5.65Y-3.95
X5.65Y-4.05
X5.65Y-4.15
X5.75Y-5.1
X6.0Y-5.1
X6.15Y-5.1
X6.425Y-5.625
X6.525Y-4.625
X6.525Y-5.625
X6.625Y-4.625
X6.625Y-5.625
X6.725Y-4.625
X6.725Y-5.625
X6.825Y-4.625
X6.825Y-5.625
X6.925Y-5.625
T4
X5.5522Y-4.6069
X5.5522Y-4.9431
X5.7384Y-4.6069
X5.7384Y-4.9431
T0
M30
