%TF.GenerationSoftware,KiCad,Pcbnew,(5.1.10)-1*%
%TF.CreationDate,2021-12-14T17:34:47+01:00*%
%TF.ProjectId,SmartScale,536d6172-7453-4636-916c-652e6b696361,0.3*%
%TF.SameCoordinates,Original*%
%TF.FileFunction,Paste,Top*%
%TF.FilePolarity,Positive*%
%FSLAX46Y46*%
G04 Gerber Fmt 4.6, Leading zero omitted, Abs format (unit mm)*
G04 Created by KiCad (PCBNEW (5.1.10)-1) date 2021-12-14 17:34:47*
%MOMM*%
%LPD*%
G01*
G04 APERTURE LIST*
%ADD10R,1.000000X0.200000*%
%ADD11R,1.200000X0.300000*%
%ADD12R,0.900000X0.800000*%
%ADD13R,2.000000X0.900000*%
%ADD14R,0.900000X2.000000*%
%ADD15R,5.000000X5.000000*%
%ADD16R,0.800000X1.300000*%
%ADD17R,1.500000X2.000000*%
%ADD18R,3.800000X2.000000*%
%ADD19R,0.650000X1.060000*%
G04 APERTURE END LIST*
D10*
%TO.C,IC2*%
X140475000Y-121285000D03*
X143575000Y-121285000D03*
D11*
X148155000Y-124035000D03*
X148155000Y-123535000D03*
X148155000Y-123035000D03*
X148155000Y-122535000D03*
X148155000Y-122035000D03*
X148155000Y-121535000D03*
X148155000Y-121035000D03*
X148155000Y-120535000D03*
X148155000Y-120035000D03*
X148155000Y-119535000D03*
X148155000Y-119035000D03*
X148155000Y-118535000D03*
%TD*%
D12*
%TO.C,Q4*%
X147685000Y-142875000D03*
X145685000Y-143825000D03*
X145685000Y-141925000D03*
%TD*%
%TO.C,Q3*%
X147685000Y-139065000D03*
X145685000Y-140015000D03*
X145685000Y-138115000D03*
%TD*%
D13*
%TO.C,U1*%
X171980000Y-91415000D03*
X171980000Y-92685000D03*
X171980000Y-93955000D03*
X171980000Y-95225000D03*
X171980000Y-96495000D03*
X171980000Y-97765000D03*
X171980000Y-99035000D03*
X171980000Y-100305000D03*
X171980000Y-101575000D03*
X171980000Y-102845000D03*
X171980000Y-104115000D03*
X171980000Y-105385000D03*
X171980000Y-106655000D03*
X171980000Y-107925000D03*
D14*
X169195000Y-108925000D03*
X167925000Y-108925000D03*
X166655000Y-108925000D03*
X165385000Y-108925000D03*
X164115000Y-108925000D03*
X162845000Y-108925000D03*
X161575000Y-108925000D03*
X160305000Y-108925000D03*
X159035000Y-108925000D03*
X157765000Y-108925000D03*
D13*
X154980000Y-107925000D03*
X154980000Y-106655000D03*
X154980000Y-105385000D03*
X154980000Y-104115000D03*
X154980000Y-102845000D03*
X154980000Y-101575000D03*
X154980000Y-100305000D03*
X154980000Y-99035000D03*
X154980000Y-97765000D03*
X154980000Y-96495000D03*
X154980000Y-95225000D03*
X154980000Y-93955000D03*
X154980000Y-92685000D03*
X154980000Y-91415000D03*
D15*
X162480000Y-98915000D03*
%TD*%
%TO.C,U2*%
G36*
G01*
X149965000Y-137010000D02*
X149965000Y-137310000D01*
G75*
G02*
X149815000Y-137460000I-150000J0D01*
G01*
X148465000Y-137460000D01*
G75*
G02*
X148315000Y-137310000I0J150000D01*
G01*
X148315000Y-137010000D01*
G75*
G02*
X148465000Y-136860000I150000J0D01*
G01*
X149815000Y-136860000D01*
G75*
G02*
X149965000Y-137010000I0J-150000D01*
G01*
G37*
G36*
G01*
X149965000Y-135740000D02*
X149965000Y-136040000D01*
G75*
G02*
X149815000Y-136190000I-150000J0D01*
G01*
X148465000Y-136190000D01*
G75*
G02*
X148315000Y-136040000I0J150000D01*
G01*
X148315000Y-135740000D01*
G75*
G02*
X148465000Y-135590000I150000J0D01*
G01*
X149815000Y-135590000D01*
G75*
G02*
X149965000Y-135740000I0J-150000D01*
G01*
G37*
G36*
G01*
X149965000Y-134470000D02*
X149965000Y-134770000D01*
G75*
G02*
X149815000Y-134920000I-150000J0D01*
G01*
X148465000Y-134920000D01*
G75*
G02*
X148315000Y-134770000I0J150000D01*
G01*
X148315000Y-134470000D01*
G75*
G02*
X148465000Y-134320000I150000J0D01*
G01*
X149815000Y-134320000D01*
G75*
G02*
X149965000Y-134470000I0J-150000D01*
G01*
G37*
G36*
G01*
X149965000Y-133200000D02*
X149965000Y-133500000D01*
G75*
G02*
X149815000Y-133650000I-150000J0D01*
G01*
X148465000Y-133650000D01*
G75*
G02*
X148315000Y-133500000I0J150000D01*
G01*
X148315000Y-133200000D01*
G75*
G02*
X148465000Y-133050000I150000J0D01*
G01*
X149815000Y-133050000D01*
G75*
G02*
X149965000Y-133200000I0J-150000D01*
G01*
G37*
G36*
G01*
X155215000Y-133200000D02*
X155215000Y-133500000D01*
G75*
G02*
X155065000Y-133650000I-150000J0D01*
G01*
X153715000Y-133650000D01*
G75*
G02*
X153565000Y-133500000I0J150000D01*
G01*
X153565000Y-133200000D01*
G75*
G02*
X153715000Y-133050000I150000J0D01*
G01*
X155065000Y-133050000D01*
G75*
G02*
X155215000Y-133200000I0J-150000D01*
G01*
G37*
G36*
G01*
X155215000Y-134470000D02*
X155215000Y-134770000D01*
G75*
G02*
X155065000Y-134920000I-150000J0D01*
G01*
X153715000Y-134920000D01*
G75*
G02*
X153565000Y-134770000I0J150000D01*
G01*
X153565000Y-134470000D01*
G75*
G02*
X153715000Y-134320000I150000J0D01*
G01*
X155065000Y-134320000D01*
G75*
G02*
X155215000Y-134470000I0J-150000D01*
G01*
G37*
G36*
G01*
X155215000Y-135740000D02*
X155215000Y-136040000D01*
G75*
G02*
X155065000Y-136190000I-150000J0D01*
G01*
X153715000Y-136190000D01*
G75*
G02*
X153565000Y-136040000I0J150000D01*
G01*
X153565000Y-135740000D01*
G75*
G02*
X153715000Y-135590000I150000J0D01*
G01*
X155065000Y-135590000D01*
G75*
G02*
X155215000Y-135740000I0J-150000D01*
G01*
G37*
G36*
G01*
X155215000Y-137010000D02*
X155215000Y-137310000D01*
G75*
G02*
X155065000Y-137460000I-150000J0D01*
G01*
X153715000Y-137460000D01*
G75*
G02*
X153565000Y-137310000I0J150000D01*
G01*
X153565000Y-137010000D01*
G75*
G02*
X153715000Y-136860000I150000J0D01*
G01*
X155065000Y-136860000D01*
G75*
G02*
X155215000Y-137010000I0J-150000D01*
G01*
G37*
%TD*%
%TO.C,R7*%
G36*
G01*
X157295001Y-134855000D02*
X156394999Y-134855000D01*
G75*
G02*
X156145000Y-134605001I0J249999D01*
G01*
X156145000Y-133904999D01*
G75*
G02*
X156394999Y-133655000I249999J0D01*
G01*
X157295001Y-133655000D01*
G75*
G02*
X157545000Y-133904999I0J-249999D01*
G01*
X157545000Y-134605001D01*
G75*
G02*
X157295001Y-134855000I-249999J0D01*
G01*
G37*
G36*
G01*
X157295001Y-136855000D02*
X156394999Y-136855000D01*
G75*
G02*
X156145000Y-136605001I0J249999D01*
G01*
X156145000Y-135904999D01*
G75*
G02*
X156394999Y-135655000I249999J0D01*
G01*
X157295001Y-135655000D01*
G75*
G02*
X157545000Y-135904999I0J-249999D01*
G01*
X157545000Y-136605001D01*
G75*
G02*
X157295001Y-136855000I-249999J0D01*
G01*
G37*
%TD*%
%TO.C,R2*%
G36*
G01*
X144475000Y-109404999D02*
X144475000Y-110305001D01*
G75*
G02*
X144225001Y-110555000I-249999J0D01*
G01*
X143524999Y-110555000D01*
G75*
G02*
X143275000Y-110305001I0J249999D01*
G01*
X143275000Y-109404999D01*
G75*
G02*
X143524999Y-109155000I249999J0D01*
G01*
X144225001Y-109155000D01*
G75*
G02*
X144475000Y-109404999I0J-249999D01*
G01*
G37*
G36*
G01*
X142475000Y-109404999D02*
X142475000Y-110305001D01*
G75*
G02*
X142225001Y-110555000I-249999J0D01*
G01*
X141524999Y-110555000D01*
G75*
G02*
X141275000Y-110305001I0J249999D01*
G01*
X141275000Y-109404999D01*
G75*
G02*
X141524999Y-109155000I249999J0D01*
G01*
X142225001Y-109155000D01*
G75*
G02*
X142475000Y-109404999I0J-249999D01*
G01*
G37*
%TD*%
%TO.C,R1*%
G36*
G01*
X148920000Y-109404999D02*
X148920000Y-110305001D01*
G75*
G02*
X148670001Y-110555000I-249999J0D01*
G01*
X147969999Y-110555000D01*
G75*
G02*
X147720000Y-110305001I0J249999D01*
G01*
X147720000Y-109404999D01*
G75*
G02*
X147969999Y-109155000I249999J0D01*
G01*
X148670001Y-109155000D01*
G75*
G02*
X148920000Y-109404999I0J-249999D01*
G01*
G37*
G36*
G01*
X146920000Y-109404999D02*
X146920000Y-110305001D01*
G75*
G02*
X146670001Y-110555000I-249999J0D01*
G01*
X145969999Y-110555000D01*
G75*
G02*
X145720000Y-110305001I0J249999D01*
G01*
X145720000Y-109404999D01*
G75*
G02*
X145969999Y-109155000I249999J0D01*
G01*
X146670001Y-109155000D01*
G75*
G02*
X146920000Y-109404999I0J-249999D01*
G01*
G37*
%TD*%
%TO.C,C6*%
G36*
G01*
X148750000Y-130625000D02*
X149700000Y-130625000D01*
G75*
G02*
X149950000Y-130875000I0J-250000D01*
G01*
X149950000Y-131550000D01*
G75*
G02*
X149700000Y-131800000I-250000J0D01*
G01*
X148750000Y-131800000D01*
G75*
G02*
X148500000Y-131550000I0J250000D01*
G01*
X148500000Y-130875000D01*
G75*
G02*
X148750000Y-130625000I250000J0D01*
G01*
G37*
G36*
G01*
X148750000Y-128550000D02*
X149700000Y-128550000D01*
G75*
G02*
X149950000Y-128800000I0J-250000D01*
G01*
X149950000Y-129475000D01*
G75*
G02*
X149700000Y-129725000I-250000J0D01*
G01*
X148750000Y-129725000D01*
G75*
G02*
X148500000Y-129475000I0J250000D01*
G01*
X148500000Y-128800000D01*
G75*
G02*
X148750000Y-128550000I250000J0D01*
G01*
G37*
%TD*%
%TO.C,C5*%
G36*
G01*
X152585000Y-139225000D02*
X152585000Y-140175000D01*
G75*
G02*
X152335000Y-140425000I-250000J0D01*
G01*
X151660000Y-140425000D01*
G75*
G02*
X151410000Y-140175000I0J250000D01*
G01*
X151410000Y-139225000D01*
G75*
G02*
X151660000Y-138975000I250000J0D01*
G01*
X152335000Y-138975000D01*
G75*
G02*
X152585000Y-139225000I0J-250000D01*
G01*
G37*
G36*
G01*
X154660000Y-139225000D02*
X154660000Y-140175000D01*
G75*
G02*
X154410000Y-140425000I-250000J0D01*
G01*
X153735000Y-140425000D01*
G75*
G02*
X153485000Y-140175000I0J250000D01*
G01*
X153485000Y-139225000D01*
G75*
G02*
X153735000Y-138975000I250000J0D01*
G01*
X154410000Y-138975000D01*
G75*
G02*
X154660000Y-139225000I0J-250000D01*
G01*
G37*
%TD*%
D12*
%TO.C,Q2*%
X143875000Y-113980000D03*
X143875000Y-112080000D03*
X141875000Y-113030000D03*
%TD*%
%TO.C,Q1*%
X146320000Y-112080000D03*
X146320000Y-113980000D03*
X148320000Y-113030000D03*
%TD*%
%TO.C,C7*%
G36*
G01*
X149410000Y-107499999D02*
X149410000Y-108400001D01*
G75*
G02*
X149160001Y-108650000I-249999J0D01*
G01*
X148509999Y-108650000D01*
G75*
G02*
X148260000Y-108400001I0J249999D01*
G01*
X148260000Y-107499999D01*
G75*
G02*
X148509999Y-107250000I249999J0D01*
G01*
X149160001Y-107250000D01*
G75*
G02*
X149410000Y-107499999I0J-249999D01*
G01*
G37*
G36*
G01*
X151460000Y-107499999D02*
X151460000Y-108400001D01*
G75*
G02*
X151210001Y-108650000I-249999J0D01*
G01*
X150559999Y-108650000D01*
G75*
G02*
X150310000Y-108400001I0J249999D01*
G01*
X150310000Y-107499999D01*
G75*
G02*
X150559999Y-107250000I249999J0D01*
G01*
X151210001Y-107250000D01*
G75*
G02*
X151460000Y-107499999I0J-249999D01*
G01*
G37*
%TD*%
%TO.C,C4*%
G36*
G01*
X149410000Y-99879999D02*
X149410000Y-100780001D01*
G75*
G02*
X149160001Y-101030000I-249999J0D01*
G01*
X148509999Y-101030000D01*
G75*
G02*
X148260000Y-100780001I0J249999D01*
G01*
X148260000Y-99879999D01*
G75*
G02*
X148509999Y-99630000I249999J0D01*
G01*
X149160001Y-99630000D01*
G75*
G02*
X149410000Y-99879999I0J-249999D01*
G01*
G37*
G36*
G01*
X151460000Y-99879999D02*
X151460000Y-100780001D01*
G75*
G02*
X151210001Y-101030000I-249999J0D01*
G01*
X150559999Y-101030000D01*
G75*
G02*
X150310000Y-100780001I0J249999D01*
G01*
X150310000Y-99879999D01*
G75*
G02*
X150559999Y-99630000I249999J0D01*
G01*
X151210001Y-99630000D01*
G75*
G02*
X151460000Y-99879999I0J-249999D01*
G01*
G37*
%TD*%
%TO.C,R5*%
G36*
G01*
X150564001Y-116440000D02*
X149663999Y-116440000D01*
G75*
G02*
X149414000Y-116190001I0J249999D01*
G01*
X149414000Y-115489999D01*
G75*
G02*
X149663999Y-115240000I249999J0D01*
G01*
X150564001Y-115240000D01*
G75*
G02*
X150814000Y-115489999I0J-249999D01*
G01*
X150814000Y-116190001D01*
G75*
G02*
X150564001Y-116440000I-249999J0D01*
G01*
G37*
G36*
G01*
X150564001Y-118440000D02*
X149663999Y-118440000D01*
G75*
G02*
X149414000Y-118190001I0J249999D01*
G01*
X149414000Y-117489999D01*
G75*
G02*
X149663999Y-117240000I249999J0D01*
G01*
X150564001Y-117240000D01*
G75*
G02*
X150814000Y-117489999I0J-249999D01*
G01*
X150814000Y-118190001D01*
G75*
G02*
X150564001Y-118440000I-249999J0D01*
G01*
G37*
%TD*%
%TO.C,R4*%
G36*
G01*
X149663999Y-121685000D02*
X150564001Y-121685000D01*
G75*
G02*
X150814000Y-121934999I0J-249999D01*
G01*
X150814000Y-122635001D01*
G75*
G02*
X150564001Y-122885000I-249999J0D01*
G01*
X149663999Y-122885000D01*
G75*
G02*
X149414000Y-122635001I0J249999D01*
G01*
X149414000Y-121934999D01*
G75*
G02*
X149663999Y-121685000I249999J0D01*
G01*
G37*
G36*
G01*
X149663999Y-119685000D02*
X150564001Y-119685000D01*
G75*
G02*
X150814000Y-119934999I0J-249999D01*
G01*
X150814000Y-120635001D01*
G75*
G02*
X150564001Y-120885000I-249999J0D01*
G01*
X149663999Y-120885000D01*
G75*
G02*
X149414000Y-120635001I0J249999D01*
G01*
X149414000Y-119934999D01*
G75*
G02*
X149663999Y-119685000I249999J0D01*
G01*
G37*
%TD*%
%TO.C,R6*%
G36*
G01*
X157715000Y-111309999D02*
X157715000Y-112210001D01*
G75*
G02*
X157465001Y-112460000I-249999J0D01*
G01*
X156764999Y-112460000D01*
G75*
G02*
X156515000Y-112210001I0J249999D01*
G01*
X156515000Y-111309999D01*
G75*
G02*
X156764999Y-111060000I249999J0D01*
G01*
X157465001Y-111060000D01*
G75*
G02*
X157715000Y-111309999I0J-249999D01*
G01*
G37*
G36*
G01*
X159715000Y-111309999D02*
X159715000Y-112210001D01*
G75*
G02*
X159465001Y-112460000I-249999J0D01*
G01*
X158764999Y-112460000D01*
G75*
G02*
X158515000Y-112210001I0J249999D01*
G01*
X158515000Y-111309999D01*
G75*
G02*
X158764999Y-111060000I249999J0D01*
G01*
X159465001Y-111060000D01*
G75*
G02*
X159715000Y-111309999I0J-249999D01*
G01*
G37*
%TD*%
%TO.C,R14*%
G36*
G01*
X169240000Y-111309999D02*
X169240000Y-112210001D01*
G75*
G02*
X168990001Y-112460000I-249999J0D01*
G01*
X168289999Y-112460000D01*
G75*
G02*
X168040000Y-112210001I0J249999D01*
G01*
X168040000Y-111309999D01*
G75*
G02*
X168289999Y-111060000I249999J0D01*
G01*
X168990001Y-111060000D01*
G75*
G02*
X169240000Y-111309999I0J-249999D01*
G01*
G37*
G36*
G01*
X167240000Y-111309999D02*
X167240000Y-112210001D01*
G75*
G02*
X166990001Y-112460000I-249999J0D01*
G01*
X166289999Y-112460000D01*
G75*
G02*
X166040000Y-112210001I0J249999D01*
G01*
X166040000Y-111309999D01*
G75*
G02*
X166289999Y-111060000I249999J0D01*
G01*
X166990001Y-111060000D01*
G75*
G02*
X167240000Y-111309999I0J-249999D01*
G01*
G37*
%TD*%
%TO.C,R13*%
G36*
G01*
X171050000Y-111309999D02*
X171050000Y-112210001D01*
G75*
G02*
X170800001Y-112460000I-249999J0D01*
G01*
X170099999Y-112460000D01*
G75*
G02*
X169850000Y-112210001I0J249999D01*
G01*
X169850000Y-111309999D01*
G75*
G02*
X170099999Y-111060000I249999J0D01*
G01*
X170800001Y-111060000D01*
G75*
G02*
X171050000Y-111309999I0J-249999D01*
G01*
G37*
G36*
G01*
X173050000Y-111309999D02*
X173050000Y-112210001D01*
G75*
G02*
X172800001Y-112460000I-249999J0D01*
G01*
X172099999Y-112460000D01*
G75*
G02*
X171850000Y-112210001I0J249999D01*
G01*
X171850000Y-111309999D01*
G75*
G02*
X172099999Y-111060000I249999J0D01*
G01*
X172800001Y-111060000D01*
G75*
G02*
X173050000Y-111309999I0J-249999D01*
G01*
G37*
%TD*%
%TO.C,R12*%
G36*
G01*
X140519999Y-137465000D02*
X141420001Y-137465000D01*
G75*
G02*
X141670000Y-137714999I0J-249999D01*
G01*
X141670000Y-138415001D01*
G75*
G02*
X141420001Y-138665000I-249999J0D01*
G01*
X140519999Y-138665000D01*
G75*
G02*
X140270000Y-138415001I0J249999D01*
G01*
X140270000Y-137714999D01*
G75*
G02*
X140519999Y-137465000I249999J0D01*
G01*
G37*
G36*
G01*
X140519999Y-139465000D02*
X141420001Y-139465000D01*
G75*
G02*
X141670000Y-139714999I0J-249999D01*
G01*
X141670000Y-140415001D01*
G75*
G02*
X141420001Y-140665000I-249999J0D01*
G01*
X140519999Y-140665000D01*
G75*
G02*
X140270000Y-140415001I0J249999D01*
G01*
X140270000Y-139714999D01*
G75*
G02*
X140519999Y-139465000I249999J0D01*
G01*
G37*
%TD*%
%TO.C,R9*%
G36*
G01*
X143059999Y-137465000D02*
X143960001Y-137465000D01*
G75*
G02*
X144210000Y-137714999I0J-249999D01*
G01*
X144210000Y-138415001D01*
G75*
G02*
X143960001Y-138665000I-249999J0D01*
G01*
X143059999Y-138665000D01*
G75*
G02*
X142810000Y-138415001I0J249999D01*
G01*
X142810000Y-137714999D01*
G75*
G02*
X143059999Y-137465000I249999J0D01*
G01*
G37*
G36*
G01*
X143059999Y-139465000D02*
X143960001Y-139465000D01*
G75*
G02*
X144210000Y-139714999I0J-249999D01*
G01*
X144210000Y-140415001D01*
G75*
G02*
X143960001Y-140665000I-249999J0D01*
G01*
X143059999Y-140665000D01*
G75*
G02*
X142810000Y-140415001I0J249999D01*
G01*
X142810000Y-139714999D01*
G75*
G02*
X143059999Y-139465000I249999J0D01*
G01*
G37*
%TD*%
%TO.C,R8*%
G36*
G01*
X150260000Y-105860001D02*
X150260000Y-104959999D01*
G75*
G02*
X150509999Y-104710000I249999J0D01*
G01*
X151210001Y-104710000D01*
G75*
G02*
X151460000Y-104959999I0J-249999D01*
G01*
X151460000Y-105860001D01*
G75*
G02*
X151210001Y-106110000I-249999J0D01*
G01*
X150509999Y-106110000D01*
G75*
G02*
X150260000Y-105860001I0J249999D01*
G01*
G37*
G36*
G01*
X148260000Y-105860001D02*
X148260000Y-104959999D01*
G75*
G02*
X148509999Y-104710000I249999J0D01*
G01*
X149210001Y-104710000D01*
G75*
G02*
X149460000Y-104959999I0J-249999D01*
G01*
X149460000Y-105860001D01*
G75*
G02*
X149210001Y-106110000I-249999J0D01*
G01*
X148509999Y-106110000D01*
G75*
G02*
X148260000Y-105860001I0J249999D01*
G01*
G37*
%TD*%
%TO.C,R3*%
G36*
G01*
X150260000Y-103320001D02*
X150260000Y-102419999D01*
G75*
G02*
X150509999Y-102170000I249999J0D01*
G01*
X151210001Y-102170000D01*
G75*
G02*
X151460000Y-102419999I0J-249999D01*
G01*
X151460000Y-103320001D01*
G75*
G02*
X151210001Y-103570000I-249999J0D01*
G01*
X150509999Y-103570000D01*
G75*
G02*
X150260000Y-103320001I0J249999D01*
G01*
G37*
G36*
G01*
X148260000Y-103320001D02*
X148260000Y-102419999D01*
G75*
G02*
X148509999Y-102170000I249999J0D01*
G01*
X149210001Y-102170000D01*
G75*
G02*
X149460000Y-102419999I0J-249999D01*
G01*
X149460000Y-103320001D01*
G75*
G02*
X149210001Y-103570000I-249999J0D01*
G01*
X148509999Y-103570000D01*
G75*
G02*
X148260000Y-103320001I0J249999D01*
G01*
G37*
%TD*%
%TO.C,R16*%
G36*
G01*
X168725001Y-137395000D02*
X167824999Y-137395000D01*
G75*
G02*
X167575000Y-137145001I0J249999D01*
G01*
X167575000Y-136444999D01*
G75*
G02*
X167824999Y-136195000I249999J0D01*
G01*
X168725001Y-136195000D01*
G75*
G02*
X168975000Y-136444999I0J-249999D01*
G01*
X168975000Y-137145001D01*
G75*
G02*
X168725001Y-137395000I-249999J0D01*
G01*
G37*
G36*
G01*
X168725001Y-139395000D02*
X167824999Y-139395000D01*
G75*
G02*
X167575000Y-139145001I0J249999D01*
G01*
X167575000Y-138444999D01*
G75*
G02*
X167824999Y-138195000I249999J0D01*
G01*
X168725001Y-138195000D01*
G75*
G02*
X168975000Y-138444999I0J-249999D01*
G01*
X168975000Y-139145001D01*
G75*
G02*
X168725001Y-139395000I-249999J0D01*
G01*
G37*
%TD*%
%TO.C,R15*%
G36*
G01*
X166185001Y-137395000D02*
X165284999Y-137395000D01*
G75*
G02*
X165035000Y-137145001I0J249999D01*
G01*
X165035000Y-136444999D01*
G75*
G02*
X165284999Y-136195000I249999J0D01*
G01*
X166185001Y-136195000D01*
G75*
G02*
X166435000Y-136444999I0J-249999D01*
G01*
X166435000Y-137145001D01*
G75*
G02*
X166185001Y-137395000I-249999J0D01*
G01*
G37*
G36*
G01*
X166185001Y-139395000D02*
X165284999Y-139395000D01*
G75*
G02*
X165035000Y-139145001I0J249999D01*
G01*
X165035000Y-138444999D01*
G75*
G02*
X165284999Y-138195000I249999J0D01*
G01*
X166185001Y-138195000D01*
G75*
G02*
X166435000Y-138444999I0J-249999D01*
G01*
X166435000Y-139145001D01*
G75*
G02*
X166185001Y-139395000I-249999J0D01*
G01*
G37*
%TD*%
%TO.C,R11*%
G36*
G01*
X175075001Y-137395000D02*
X174174999Y-137395000D01*
G75*
G02*
X173925000Y-137145001I0J249999D01*
G01*
X173925000Y-136444999D01*
G75*
G02*
X174174999Y-136195000I249999J0D01*
G01*
X175075001Y-136195000D01*
G75*
G02*
X175325000Y-136444999I0J-249999D01*
G01*
X175325000Y-137145001D01*
G75*
G02*
X175075001Y-137395000I-249999J0D01*
G01*
G37*
G36*
G01*
X175075001Y-139395000D02*
X174174999Y-139395000D01*
G75*
G02*
X173925000Y-139145001I0J249999D01*
G01*
X173925000Y-138444999D01*
G75*
G02*
X174174999Y-138195000I249999J0D01*
G01*
X175075001Y-138195000D01*
G75*
G02*
X175325000Y-138444999I0J-249999D01*
G01*
X175325000Y-139145001D01*
G75*
G02*
X175075001Y-139395000I-249999J0D01*
G01*
G37*
%TD*%
%TO.C,R10*%
G36*
G01*
X177615001Y-137395000D02*
X176714999Y-137395000D01*
G75*
G02*
X176465000Y-137145001I0J249999D01*
G01*
X176465000Y-136444999D01*
G75*
G02*
X176714999Y-136195000I249999J0D01*
G01*
X177615001Y-136195000D01*
G75*
G02*
X177865000Y-136444999I0J-249999D01*
G01*
X177865000Y-137145001D01*
G75*
G02*
X177615001Y-137395000I-249999J0D01*
G01*
G37*
G36*
G01*
X177615001Y-139395000D02*
X176714999Y-139395000D01*
G75*
G02*
X176465000Y-139145001I0J249999D01*
G01*
X176465000Y-138444999D01*
G75*
G02*
X176714999Y-138195000I249999J0D01*
G01*
X177615001Y-138195000D01*
G75*
G02*
X177865000Y-138444999I0J-249999D01*
G01*
X177865000Y-139145001D01*
G75*
G02*
X177615001Y-139395000I-249999J0D01*
G01*
G37*
%TD*%
%TO.C,C3*%
G36*
G01*
X150310000Y-98265000D02*
X150310000Y-97315000D01*
G75*
G02*
X150560000Y-97065000I250000J0D01*
G01*
X151235000Y-97065000D01*
G75*
G02*
X151485000Y-97315000I0J-250000D01*
G01*
X151485000Y-98265000D01*
G75*
G02*
X151235000Y-98515000I-250000J0D01*
G01*
X150560000Y-98515000D01*
G75*
G02*
X150310000Y-98265000I0J250000D01*
G01*
G37*
G36*
G01*
X148235000Y-98265000D02*
X148235000Y-97315000D01*
G75*
G02*
X148485000Y-97065000I250000J0D01*
G01*
X149160000Y-97065000D01*
G75*
G02*
X149410000Y-97315000I0J-250000D01*
G01*
X149410000Y-98265000D01*
G75*
G02*
X149160000Y-98515000I-250000J0D01*
G01*
X148485000Y-98515000D01*
G75*
G02*
X148235000Y-98265000I0J250000D01*
G01*
G37*
%TD*%
%TO.C,C13*%
G36*
G01*
X156395000Y-123985000D02*
X156395000Y-124935000D01*
G75*
G02*
X156145000Y-125185000I-250000J0D01*
G01*
X155470000Y-125185000D01*
G75*
G02*
X155220000Y-124935000I0J250000D01*
G01*
X155220000Y-123985000D01*
G75*
G02*
X155470000Y-123735000I250000J0D01*
G01*
X156145000Y-123735000D01*
G75*
G02*
X156395000Y-123985000I0J-250000D01*
G01*
G37*
G36*
G01*
X158470000Y-123985000D02*
X158470000Y-124935000D01*
G75*
G02*
X158220000Y-125185000I-250000J0D01*
G01*
X157545000Y-125185000D01*
G75*
G02*
X157295000Y-124935000I0J250000D01*
G01*
X157295000Y-123985000D01*
G75*
G02*
X157545000Y-123735000I250000J0D01*
G01*
X158220000Y-123735000D01*
G75*
G02*
X158470000Y-123985000I0J-250000D01*
G01*
G37*
%TD*%
%TO.C,C2*%
G36*
G01*
X150310000Y-95725000D02*
X150310000Y-94775000D01*
G75*
G02*
X150560000Y-94525000I250000J0D01*
G01*
X151235000Y-94525000D01*
G75*
G02*
X151485000Y-94775000I0J-250000D01*
G01*
X151485000Y-95725000D01*
G75*
G02*
X151235000Y-95975000I-250000J0D01*
G01*
X150560000Y-95975000D01*
G75*
G02*
X150310000Y-95725000I0J250000D01*
G01*
G37*
G36*
G01*
X148235000Y-95725000D02*
X148235000Y-94775000D01*
G75*
G02*
X148485000Y-94525000I250000J0D01*
G01*
X149160000Y-94525000D01*
G75*
G02*
X149410000Y-94775000I0J-250000D01*
G01*
X149410000Y-95725000D01*
G75*
G02*
X149160000Y-95975000I-250000J0D01*
G01*
X148485000Y-95975000D01*
G75*
G02*
X148235000Y-95725000I0J250000D01*
G01*
G37*
%TD*%
%TO.C,C1*%
G36*
G01*
X150310000Y-93185000D02*
X150310000Y-92235000D01*
G75*
G02*
X150560000Y-91985000I250000J0D01*
G01*
X151235000Y-91985000D01*
G75*
G02*
X151485000Y-92235000I0J-250000D01*
G01*
X151485000Y-93185000D01*
G75*
G02*
X151235000Y-93435000I-250000J0D01*
G01*
X150560000Y-93435000D01*
G75*
G02*
X150310000Y-93185000I0J250000D01*
G01*
G37*
G36*
G01*
X148235000Y-93185000D02*
X148235000Y-92235000D01*
G75*
G02*
X148485000Y-91985000I250000J0D01*
G01*
X149160000Y-91985000D01*
G75*
G02*
X149410000Y-92235000I0J-250000D01*
G01*
X149410000Y-93185000D01*
G75*
G02*
X149160000Y-93435000I-250000J0D01*
G01*
X148485000Y-93435000D01*
G75*
G02*
X148235000Y-93185000I0J250000D01*
G01*
G37*
%TD*%
%TO.C,C12*%
G36*
G01*
X152585000Y-123985000D02*
X152585000Y-124935000D01*
G75*
G02*
X152335000Y-125185000I-250000J0D01*
G01*
X151660000Y-125185000D01*
G75*
G02*
X151410000Y-124935000I0J250000D01*
G01*
X151410000Y-123985000D01*
G75*
G02*
X151660000Y-123735000I250000J0D01*
G01*
X152335000Y-123735000D01*
G75*
G02*
X152585000Y-123985000I0J-250000D01*
G01*
G37*
G36*
G01*
X154660000Y-123985000D02*
X154660000Y-124935000D01*
G75*
G02*
X154410000Y-125185000I-250000J0D01*
G01*
X153735000Y-125185000D01*
G75*
G02*
X153485000Y-124935000I0J250000D01*
G01*
X153485000Y-123985000D01*
G75*
G02*
X153735000Y-123735000I250000J0D01*
G01*
X154410000Y-123735000D01*
G75*
G02*
X154660000Y-123985000I0J-250000D01*
G01*
G37*
%TD*%
%TO.C,C11*%
G36*
G01*
X164305000Y-122105000D02*
X163355000Y-122105000D01*
G75*
G02*
X163105000Y-121855000I0J250000D01*
G01*
X163105000Y-121180000D01*
G75*
G02*
X163355000Y-120930000I250000J0D01*
G01*
X164305000Y-120930000D01*
G75*
G02*
X164555000Y-121180000I0J-250000D01*
G01*
X164555000Y-121855000D01*
G75*
G02*
X164305000Y-122105000I-250000J0D01*
G01*
G37*
G36*
G01*
X164305000Y-124180000D02*
X163355000Y-124180000D01*
G75*
G02*
X163105000Y-123930000I0J250000D01*
G01*
X163105000Y-123255000D01*
G75*
G02*
X163355000Y-123005000I250000J0D01*
G01*
X164305000Y-123005000D01*
G75*
G02*
X164555000Y-123255000I0J-250000D01*
G01*
X164555000Y-123930000D01*
G75*
G02*
X164305000Y-124180000I-250000J0D01*
G01*
G37*
%TD*%
%TO.C,C10*%
G36*
G01*
X171290000Y-137345000D02*
X170340000Y-137345000D01*
G75*
G02*
X170090000Y-137095000I0J250000D01*
G01*
X170090000Y-136420000D01*
G75*
G02*
X170340000Y-136170000I250000J0D01*
G01*
X171290000Y-136170000D01*
G75*
G02*
X171540000Y-136420000I0J-250000D01*
G01*
X171540000Y-137095000D01*
G75*
G02*
X171290000Y-137345000I-250000J0D01*
G01*
G37*
G36*
G01*
X171290000Y-139420000D02*
X170340000Y-139420000D01*
G75*
G02*
X170090000Y-139170000I0J250000D01*
G01*
X170090000Y-138495000D01*
G75*
G02*
X170340000Y-138245000I250000J0D01*
G01*
X171290000Y-138245000D01*
G75*
G02*
X171540000Y-138495000I0J-250000D01*
G01*
X171540000Y-139170000D01*
G75*
G02*
X171290000Y-139420000I-250000J0D01*
G01*
G37*
%TD*%
%TO.C,C9*%
G36*
G01*
X162720000Y-138245000D02*
X163670000Y-138245000D01*
G75*
G02*
X163920000Y-138495000I0J-250000D01*
G01*
X163920000Y-139170000D01*
G75*
G02*
X163670000Y-139420000I-250000J0D01*
G01*
X162720000Y-139420000D01*
G75*
G02*
X162470000Y-139170000I0J250000D01*
G01*
X162470000Y-138495000D01*
G75*
G02*
X162720000Y-138245000I250000J0D01*
G01*
G37*
G36*
G01*
X162720000Y-136170000D02*
X163670000Y-136170000D01*
G75*
G02*
X163920000Y-136420000I0J-250000D01*
G01*
X163920000Y-137095000D01*
G75*
G02*
X163670000Y-137345000I-250000J0D01*
G01*
X162720000Y-137345000D01*
G75*
G02*
X162470000Y-137095000I0J250000D01*
G01*
X162470000Y-136420000D01*
G75*
G02*
X162720000Y-136170000I250000J0D01*
G01*
G37*
%TD*%
%TO.C,C8*%
G36*
G01*
X144330000Y-145575000D02*
X144330000Y-146525000D01*
G75*
G02*
X144080000Y-146775000I-250000J0D01*
G01*
X143405000Y-146775000D01*
G75*
G02*
X143155000Y-146525000I0J250000D01*
G01*
X143155000Y-145575000D01*
G75*
G02*
X143405000Y-145325000I250000J0D01*
G01*
X144080000Y-145325000D01*
G75*
G02*
X144330000Y-145575000I0J-250000D01*
G01*
G37*
G36*
G01*
X146405000Y-145575000D02*
X146405000Y-146525000D01*
G75*
G02*
X146155000Y-146775000I-250000J0D01*
G01*
X145480000Y-146775000D01*
G75*
G02*
X145230000Y-146525000I0J250000D01*
G01*
X145230000Y-145575000D01*
G75*
G02*
X145480000Y-145325000I250000J0D01*
G01*
X146155000Y-145325000D01*
G75*
G02*
X146405000Y-145575000I0J-250000D01*
G01*
G37*
%TD*%
D16*
%TO.C,IC1*%
X167635000Y-124485000D03*
X168915000Y-124485000D03*
X170175000Y-124485000D03*
X171445000Y-124485000D03*
X172725000Y-124485000D03*
X173995000Y-124485000D03*
X175255000Y-124485000D03*
X176535000Y-124485000D03*
X176535000Y-130785000D03*
X175255000Y-130785000D03*
X173995000Y-130785000D03*
X172725000Y-130785000D03*
X171445000Y-130785000D03*
X170175000Y-130785000D03*
X168915000Y-130785000D03*
X167635000Y-130785000D03*
%TD*%
D17*
%TO.C,U4*%
X152640000Y-121895000D03*
X157240000Y-121895000D03*
X154940000Y-121895000D03*
D18*
X154940000Y-115595000D03*
%TD*%
D19*
%TO.C,U3*%
X143825000Y-141775000D03*
X142875000Y-141775000D03*
X141925000Y-141775000D03*
X141925000Y-143975000D03*
X143825000Y-143975000D03*
X142875000Y-143975000D03*
%TD*%
D12*
%TO.C,Q5*%
X162195000Y-127635000D03*
X164195000Y-126685000D03*
X164195000Y-128585000D03*
%TD*%
M02*
