%TF.GenerationSoftware,KiCad,Pcbnew,(5.1.10)-1*%
%TF.CreationDate,2021-12-14T17:34:47+01:00*%
%TF.ProjectId,SmartScale,536d6172-7453-4636-916c-652e6b696361,0.3*%
%TF.SameCoordinates,Original*%
%TF.FileFunction,Profile,NP*%
%FSLAX46Y46*%
G04 Gerber Fmt 4.6, Leading zero omitted, Abs format (unit mm)*
G04 Created by KiCad (PCBNEW (5.1.10)-1) date 2021-12-14 17:34:47*
%MOMM*%
%LPD*%
G01*
G04 APERTURE LIST*
%TA.AperFunction,Profile*%
%ADD10C,0.050000*%
%TD*%
G04 APERTURE END LIST*
D10*
X180340000Y-135890000D02*
X180340000Y-102235000D01*
X180340000Y-147955000D02*
X180340000Y-141605000D01*
X139700000Y-147955000D02*
X180340000Y-147955000D01*
X139700000Y-141605000D02*
X139700000Y-147955000D01*
X139700000Y-102235000D02*
X139700000Y-135890000D01*
X139700000Y-90170000D02*
X139700000Y-96520000D01*
X180340000Y-90170000D02*
X139700000Y-90170000D01*
X180340000Y-96520000D02*
X180340000Y-90170000D01*
X138430000Y-97790000D02*
X139700000Y-96520000D01*
X138430000Y-100965000D02*
X138430000Y-97790000D01*
X139700000Y-102235000D02*
X138430000Y-100965000D01*
X138430000Y-137160000D02*
X139700000Y-135890000D01*
X138430000Y-140335000D02*
X138430000Y-137160000D01*
X139700000Y-141605000D02*
X138430000Y-140335000D01*
X181610000Y-137160000D02*
X180340000Y-135890000D01*
X181610000Y-140335000D02*
X181610000Y-137160000D01*
X180340000Y-141605000D02*
X181610000Y-140335000D01*
X181610000Y-100965000D02*
X180340000Y-102235000D01*
X181610000Y-97790000D02*
X181610000Y-100965000D01*
X180340000Y-96520000D02*
X181610000Y-97790000D01*
M02*
