%TF.GenerationSoftware,KiCad,Pcbnew,(5.1.10)-1*%
%TF.CreationDate,2021-12-14T17:34:47+01:00*%
%TF.ProjectId,SmartScale,536d6172-7453-4636-916c-652e6b696361,0.3*%
%TF.SameCoordinates,Original*%
%TF.FileFunction,Soldermask,Bot*%
%TF.FilePolarity,Negative*%
%FSLAX46Y46*%
G04 Gerber Fmt 4.6, Leading zero omitted, Abs format (unit mm)*
G04 Created by KiCad (PCBNEW (5.1.10)-1) date 2021-12-14 17:34:47*
%MOMM*%
%LPD*%
G01*
G04 APERTURE LIST*
%ADD10C,0.020000*%
%ADD11C,1.500000*%
%ADD12C,2.010000*%
%ADD13C,0.700000*%
%ADD14R,1.700000X1.700000*%
%ADD15C,1.000000*%
%ADD16O,1.700000X1.700000*%
%ADD17C,1.400000*%
G04 APERTURE END LIST*
D10*
%TO.C,QR\u002A\u002A\u002A\u002A\u002A*%
G36*
X174830000Y-121620000D02*
G01*
X174830000Y-134920000D01*
X161530000Y-134920000D01*
X161530000Y-121620000D01*
X174830000Y-121620000D01*
G37*
%TD*%
D11*
%TO.C,REF\u002A\u002A*%
X154305000Y-127635000D03*
%TD*%
D12*
%TO.C,IC2*%
X141025000Y-125555000D03*
X141025000Y-117015000D03*
X145755000Y-125555000D03*
X145755000Y-117015000D03*
D13*
X146905000Y-123285000D03*
X146905000Y-119285000D03*
X146905000Y-118485000D03*
X146205000Y-118885000D03*
X146205000Y-119685000D03*
X146905000Y-120085000D03*
X146205000Y-120485000D03*
X146905000Y-120885000D03*
X146905000Y-121685000D03*
X146205000Y-122085000D03*
X146905000Y-122485000D03*
X146205000Y-122885000D03*
X146205000Y-123685000D03*
X146905000Y-124085000D03*
%TD*%
D14*
%TO.C,BAT2*%
X152400000Y-129540000D03*
%TD*%
%TO.C,BAT1*%
X146050000Y-129540000D03*
%TD*%
%TO.C,BT1*%
G36*
G01*
X149850000Y-127575000D02*
X149850000Y-126425000D01*
G75*
G02*
X150100000Y-126175000I250000J0D01*
G01*
X151200000Y-126175000D01*
G75*
G02*
X151450000Y-126425000I0J-250000D01*
G01*
X151450000Y-127575000D01*
G75*
G02*
X151200000Y-127825000I-250000J0D01*
G01*
X150100000Y-127825000D01*
G75*
G02*
X149850000Y-127575000I0J250000D01*
G01*
G37*
G36*
G01*
X147000000Y-127575000D02*
X147000000Y-126425000D01*
G75*
G02*
X147250000Y-126175000I250000J0D01*
G01*
X148350000Y-126175000D01*
G75*
G02*
X148600000Y-126425000I0J-250000D01*
G01*
X148600000Y-127575000D01*
G75*
G02*
X148350000Y-127825000I-250000J0D01*
G01*
X147250000Y-127825000D01*
G75*
G02*
X147000000Y-127575000I0J250000D01*
G01*
G37*
%TD*%
%TO.C,TP11*%
X156210000Y-129540000D03*
%TD*%
%TO.C,TP10*%
X142240000Y-129540000D03*
%TD*%
D15*
%TO.C,TP2*%
X142240000Y-119380000D03*
%TD*%
%TO.C,TP1*%
X142240000Y-123190000D03*
%TD*%
D16*
%TO.C,J3*%
X175895000Y-142875000D03*
X173355000Y-142875000D03*
X170815000Y-142875000D03*
X168275000Y-142875000D03*
X165735000Y-142875000D03*
D14*
X163195000Y-142875000D03*
%TD*%
D16*
%TO.C,J4*%
X173355000Y-117475000D03*
X170815000Y-117475000D03*
X168275000Y-117475000D03*
D14*
X165735000Y-117475000D03*
%TD*%
D17*
%TO.C,T9*%
X161925000Y-111760000D03*
%TD*%
%TO.C,GP33*%
X178435000Y-104775000D03*
%TD*%
%TO.C,GP27*%
X178435000Y-112395000D03*
%TD*%
%TO.C,GP23*%
X178435000Y-92075000D03*
%TD*%
%TO.C,GP22*%
X178435000Y-94615000D03*
%TD*%
%TO.C,GP21*%
X178435000Y-97155000D03*
%TD*%
%TO.C,GP19*%
X178435000Y-99695000D03*
%TD*%
%TO.C,GP18*%
X178435000Y-102235000D03*
%TD*%
%TO.C,GP26*%
X178435000Y-109855000D03*
%TD*%
%TO.C,GP25*%
X178435000Y-107315000D03*
%TD*%
D16*
%TO.C,J2*%
X143510000Y-92710000D03*
X143510000Y-95250000D03*
X143510000Y-97790000D03*
X143510000Y-100330000D03*
X143510000Y-102870000D03*
D14*
X143510000Y-105410000D03*
%TD*%
M02*
